<?xml version="1.0" standalone="no"?><!DOCTYPE svg PUBLIC "-//W3C//DTD SVG 1.1//EN" "http://www.w3.org/Graphics/SVG/1.1/DTD/svg11.dtd"><svg class="icon" width="200px" height="200.00px" viewBox="0 0 1024 1024" version="1.1" xmlns="http://www.w3.org/2000/svg"><path d="M716.8 710.1c-1.2-131.2-107.9-237.2-239.3-237.2s-238.1 106-239.3 237.2h478.6z" fill="#C7D2E2" /><path d="M472.5 437.1m-31.3 0a31.3 31.3 0 1 0 62.6 0 31.3 31.3 0 1 0-62.6 0Z" fill="#FFAD48" /><path d="M588.5 348.5c-0.6 0-1.3-0.2-1.8-0.7-1-1-1-2.6 0-3.6l22-21.9c1-1 2.6-1 3.6 0s1 2.6 0 3.6l-22 21.9c-0.5 0.4-1.1 0.7-1.8 0.7z" fill="#31FF6F" /><path d="M610.5 348.5c-0.6 0-1.3-0.2-1.8-0.7l-22-21.9c-1-1-1-2.6 0-3.6s2.6-1 3.6 0l22 21.9c1 1 1 2.6 0 3.6-0.5 0.4-1.2 0.7-1.8 0.7z" fill="#31FF6F" /><path d="M902.4 586.5c-1.3 0-2.6-0.5-3.6-1.5-2-2-2-5.2 0-7.2l26.9-26.9c2-2 5.2-2 7.2 0s2 5.2 0 7.2L906 585c-1 1-2.3 1.5-3.6 1.5z" fill="#AB5CFF" /><path d="M929.3 586.5c-1.3 0-2.6-0.5-3.6-1.5l-26.9-26.9c-2-2-2-5.2 0-7.2s5.2-2 7.2 0l26.9 26.9c2 2 2 5.2 0 7.2-1 1-2.3 1.5-3.6 1.5z" fill="#AB5CFF" /><path d="M104.9 313H84.4c-2.8 0-5.1-2.3-5.1-5.1s2.3-5.1 5.1-5.1h20.5c2.8 0 5.1 2.3 5.1 5.1s-2.3 5.1-5.1 5.1z" fill="#FFE00B" /><path d="M94.7 323.2c-2.8 0-5.1-2.3-5.1-5.1v-20.5c0-2.8 2.3-5.1 5.1-5.1s5.1 2.3 5.1 5.1v20.5c-0.1 2.8-2.3 5.1-5.1 5.1z" fill="#FFE00B" /><path d="M468.7 227.6c-7.3 0-13.2-5.9-13.2-13.2 0-7.3 5.9-13.2 13.2-13.2 7.3 0 13.2 5.9 13.2 13.2 0 7.2-5.9 13.2-13.2 13.2z m0-20.5c-4 0-7.3 3.3-7.3 7.3s3.3 7.3 7.3 7.3 7.3-3.3 7.3-7.3-3.3-7.3-7.3-7.3z" fill="#FF56D6" /><path d="M815.1 269.7c-10.4 0-18.8-8.5-18.8-18.8s8.5-18.8 18.8-18.8c10.4 0 18.8 8.5 18.8 18.8s-8.5 18.8-18.8 18.8z m0-29.2c-5.7 0-10.4 4.7-10.4 10.4s4.7 10.4 10.4 10.4 10.4-4.7 10.4-10.4c-0.1-5.7-4.7-10.4-10.4-10.4z" fill="#FFC262" /><path d="M327 381.6c-12.5 0-22.6-10.1-22.6-22.6 0-12.5 10.1-22.6 22.6-22.6 12.5 0 22.6 10.1 22.6 22.6 0 12.5-10.1 22.6-22.6 22.6z m0-35c-6.9 0-12.5 5.6-12.5 12.5s5.6 12.5 12.5 12.5 12.5-5.6 12.5-12.5-5.6-12.5-12.5-12.5z" fill="#9A8DFF" /><path d="M178 510.2c-2.8 0-5.1-2.3-5.1-5.1v-16.9c0-2.8 2.3-5.1 5.1-5.1s5.1 2.3 5.1 5.1v16.9c-0.1 2.9-2.3 5.1-5.1 5.1zM204.8 499.1c-1.3 0-2.6-0.5-3.6-1.5l-11.9-11.9c-2-2-2-5.2 0-7.2s5.2-2 7.2 0l11.9 11.9c2 2 2 5.2 0 7.2-1 1-2.3 1.5-3.6 1.5zM215.9 472.2H199c-2.8 0-5.1-2.3-5.1-5.1s2.3-5.1 5.1-5.1h16.9c2.8 0 5.1 2.3 5.1 5.1 0 2.9-2.3 5.1-5.1 5.1zM192.9 457.3c-1.3 0-2.6-0.5-3.6-1.5-2-2-2-5.2 0-7.2l11.9-11.9c2-2 5.2-2 7.2 0s2 5.2 0 7.2l-11.9 11.9c-1 1-2.3 1.5-3.6 1.5zM178 451.1c-2.8 0-5.1-2.3-5.1-5.1v-16.9c0-2.8 2.3-5.1 5.1-5.1s5.1 2.3 5.1 5.1V446c-0.1 2.9-2.3 5.1-5.1 5.1zM163 457.3c-1.3 0-2.6-0.5-3.6-1.5l-11.9-11.9c-2-2-2-5.2 0-7.2s5.2-2 7.2 0l11.9 11.9c2 2 2 5.2 0 7.2-1 1-2.3 1.5-3.6 1.5zM156.8 472.2H140c-2.8 0-5.1-2.3-5.1-5.1s2.3-5.1 5.1-5.1h16.9c2.8 0 5.1 2.3 5.1 5.1-0.1 2.9-2.4 5.1-5.2 5.1zM151.1 499.1c-1.3 0-2.6-0.5-3.6-1.5-2-2-2-5.2 0-7.2l11.9-11.9c2-2 5.2-2 7.2 0s2 5.2 0 7.2l-11.9 11.9c-1 1-2.3 1.5-3.6 1.5z" fill="#FF8588" /><path d="M64 592.8m-8.8 0a8.8 8.8 0 1 0 17.6 0 8.8 8.8 0 1 0-17.6 0Z" fill="#39B4FF" /><path d="M967 402.9m-8.8 0a8.8 8.8 0 1 0 17.6 0 8.8 8.8 0 1 0-17.6 0Z" fill="#FF79C7" /><path d="M477.4 472.9c-21.4 0-42.1 2.8-61.8 8.1 101.6 27.1 176.6 119.2 177.6 229.1h123.6c-1.2-131.2-107.9-237.2-239.4-237.2z" fill="#B5C9E5" /><path d="M472.5 405.8c-4.4 0-8.6 0.9-12.4 2.5 11.2 4.8 19 15.9 19 28.8s-7.8 24-19 28.8c3.8 1.6 8 2.5 12.4 2.5 17.3 0 31.3-14 31.3-31.3s-14-31.3-31.3-31.3z" fill="#FF7517" /><path d="M697.4 720.2H198.2l0.1-10.2c0.6-62.2 24.2-121.6 66.4-167.2 3.8-4.1 10.2-4.4 14.3-0.5 4.1 3.8 4.4 10.2 0.5 14.3-36.5 39.4-57.8 90-60.7 143.4h457.8c-6.5-120.5-107.1-216.9-228.9-216.9-50.6 0-98.6 16.2-138.8 46.8-4.5 3.4-10.8 2.5-14.2-1.9-3.4-4.5-2.5-10.8 1.9-14.2 43.7-33.3 96-51 151.1-51 136.3 0 248.2 110.9 249.5 247.2l0.2 10.2z" fill="#232233" /><path d="M743.4 452.6c-1.6 0-2.9-1.3-2.9-2.9V343c0-10.5-8.5-19-19-19h-14.6c-10.5 0-19 8.5-19 19v106.7c0 1.6-1.3 2.9-2.9 2.9-16.1 0-29.2 13.1-29.2 29.2v228h116.9v-228c0-16.2-13.1-29.2-29.3-29.2z" fill="#FFFFFF" /><path d="M447.8 478.6c-22.9 0-41.5-18.6-41.5-41.5s18.6-41.5 41.5-41.5 41.5 18.6 41.5 41.5-18.7 41.5-41.5 41.5z m0-62.7c-11.7 0-21.2 9.5-21.2 21.2s9.5 21.2 21.2 21.2 21.2-9.5 21.2-21.2-9.5-21.2-21.2-21.2z" fill="#232233" /><path d="M767.6 464.2c-1.6 0-2.9-1.3-2.9-2.9V354.7c0-10.5-8.5-19-19-19H731c-10.5 0-19 8.5-19 19v106.7c0 1.6-1.3 2.9-2.9 2.9-16.1 0-29.2 13.1-29.2 29.2v228h116.9v-228c0-16.2-13.1-29.3-29.2-29.3z" fill="#FFA49F" /><path d="M712 370.7h35.8V435H712z" fill="#8080FF" /><path d="M841.4 720.2H142.2c-5.6 0-10.1-4.5-10.1-10.1s4.5-10.1 10.1-10.1h699.1c5.6 0 10.1 4.5 10.1 10.1 0.1 5.6-4.4 10.1-10 10.1z" fill="#232233" /><path d="M819.4 773.1h-86.7c-5.6 0-10.1-4.5-10.1-10.1s4.5-10.1 10.1-10.1h86.7c5.6 0 10.1 4.5 10.1 10.1 0.1 5.6-4.5 10.1-10.1 10.1z" fill="#232233" /><path d="M689.4 773.1H165.6c-5.6 0-10.1-4.5-10.1-10.1s4.5-10.1 10.1-10.1h523.8c5.6 0 10.1 4.5 10.1 10.1s-4.5 10.1-10.1 10.1z" fill="#232233" /><path d="M416.4 547.4c-4.8 0-9-3.4-10-8.2-1.1-5.5 2.5-10.8 8-11.9 10.7-2.1 21.6-3.1 32.6-3.1 5.6 0 10.1 4.5 10.1 10.1s-4.5 10.1-10.1 10.1c-9.7 0-19.3 0.9-28.7 2.7-0.6 0.2-1.2 0.3-1.9 0.3z" fill="#FFFFFF" /><path d="M290.2 670.4c-0.7 0-1.5-0.1-2.2-0.2-5.5-1.2-8.9-6.6-7.7-12.1 10.1-45.7 39-85.8 79.4-109.9 4.8-2.9 11-1.3 13.9 3.5 2.9 4.8 1.3 11-3.5 13.9-35.6 21.3-61.1 56.5-70 96.8-1 4.8-5.2 8-9.9 8z" fill="#FFFFFF" /><path d="M782.8 719.9H645.6v-73.6c0-5.6 4.5-10.1 10.1-10.1s10.1 4.5 10.1 10.1v53.3h96.6V481.8c0-10.5-8.6-19.1-19.1-19.1-7.2 0-13.1-5.9-13.1-13.1V343c0-4.9-4-8.9-8.9-8.9h-14.6c-4.9 0-8.9 4-8.9 8.9v106.7c0 7.2-5.9 13.1-13.1 13.1-10.5 0-19.1 8.6-19.1 19.1 0 5.6-4.5 10.1-10.1 10.1s-10.1-4.5-10.1-10.1c0-19.2 13.9-35.3 32.1-38.7V343c0-16.1 13.1-29.1 29.1-29.1h14.6c16.1 0 29.1 13.1 29.1 29.1v100.1c18.3 3.4 32.2 19.5 32.2 38.7v238.1z" fill="#232233" /><path d="M655.8 618.7c-5.6 0-10.1-4.5-10.1-10.1V505.2c0-5.6 4.5-10.1 10.1-10.1s10.1 4.5 10.1 10.1v103.4c0 5.6-4.5 10.1-10.1 10.1z" fill="#232233" /><path d="M655.8 515.3c-5.6 0-10.1-4.5-10.1-10.1v-23.4c0-5.6 4.5-10.1 10.1-10.1s10.1 4.5 10.1 10.1v23.4c0 5.6-4.5 10.1-10.1 10.1z" fill="#232233" /><path d="M740.5 367.2h-52.6c-5.6 0-10.1-4.5-10.1-10.1s4.5-10.1 10.1-10.1h52.6c5.6 0 10.1 4.5 10.1 10.1 0.1 5.6-4.5 10.1-10.1 10.1z" fill="#232233" /><path d="M740.5 434.4h-52.6c-5.6 0-10.1-4.5-10.1-10.1s4.5-10.1 10.1-10.1h52.6c5.6 0 10.1 4.5 10.1 10.1 0.1 5.6-4.5 10.1-10.1 10.1z" fill="#232233" /><path d="M771.2 651.3h-72c-2.2 0-4-1.8-4-4V515c0-2.2 1.8-4 4-4h72v140.3z" fill="#FFFFFF" /><path d="M765.4 651.3H719c-2.2 0-4-1.8-4-4V526.7c0-2.2 1.8-4 4-4h46.4v128.6z" fill="#FF61A1" /><path d="M781.4 661.4h-65.8c-16.8 0-30.4-13.7-30.4-30.4v-99.7c0-16.8 13.7-30.4 30.4-30.4h65.8v160.5z m-65.9-140.3c-5.6 0-10.1 4.5-10.1 10.1V631c0 5.6 4.6 10.1 10.1 10.1h45.6v-120h-45.6z" fill="#232233" /></svg>