<?xml version="1.0" standalone="no"?><!DOCTYPE svg PUBLIC "-//W3C//DTD SVG 1.1//EN" "http://www.w3.org/Graphics/SVG/1.1/DTD/svg11.dtd"><svg class="icon" width="200px" height="200.00px" viewBox="0 0 1024 1024" version="1.1" xmlns="http://www.w3.org/2000/svg"><path d="M693.5 490.8H164.8l70.7-163H638z" fill="#E2FBFF" /><path d="M816.1 501.9h30.6c55.2 0 100 44.8 100 100V749H77.8V501.9h677.3" fill="#EE746C" /><path d="M946.7 759H77.8c-5.5 0-10-4.5-10-10V501.9c0-5.5 4.5-10 10-10h677.3c5.5 0 10 4.5 10 10s-4.5 10-10 10H87.8V739h848.9V601.9c0-49.6-40.4-90-90-90h-30.6c-5.5 0-10-4.5-10-10s4.5-10 10-10h30.6c60.7 0 110 49.3 110 110V749c0 5.5-4.5 10-10 10z" fill="#5A3392" /><path d="M914.9 737.1H113.3V534.9h721.6c44.2 0 80 35.8 80 80v122.2z" fill="#FB9761" /><path d="M705.6 500.7c-4.1 0-8-2.6-9.4-6.7l-45.9-129.9-0.3-1.2c-4.6-21-22.9-35.7-44.4-35.7H263.8c-21.2 0-39.9 15-44.4 35.7-0.1 0.6-0.3 1.3-0.6 1.9L184.2 443c-2.2 5.1-8.1 7.3-13.2 5.1s-7.3-8.1-5.1-13.2l34.1-77.3c6.9-29.2 33.6-50.3 63.7-50.3h341.7c14.9 0 29.5 5.1 41 14.4 11.4 9.2 19.5 22 22.8 36.3L715 487.4c1.8 5.2-0.9 10.9-6.1 12.8-1.1 0.3-2.2 0.5-3.3 0.5z" fill="#5A3392" /><path d="M625.6 414.9c-4.6 0-8.7-3.2-9.8-7.8-4.6-21-22.9-35.7-44.4-35.7h-54.5c-5.5 0-10-4.5-10-10s4.5-10 10-10h54.5c14.9 0 29.5 5.1 41 14.4 11.6 9.3 19.7 22.4 22.9 36.9 1.2 5.4-2.2 10.7-7.6 11.9-0.7 0.2-1.4 0.3-2.1 0.3z" fill="#FFFFFF" /><path d="M322.3 502.3c-5.5 0-10-4.5-10-10V392c0-5.5 4.5-10 10-10s10 4.5 10 10v100.3c0 5.5-4.5 10-10 10zM435 502.3c-5.5 0-10-4.5-10-10v-55.9c0-5.5 4.5-10 10-10s10 4.5 10 10v55.9c0 5.5-4.5 10-10 10zM493.6 296.3c-5.5 0-10-4.5-10-10v-22.1c0-23.8-19.4-43.2-43.2-43.2-23.8 0-43.2 19.4-43.2 43.2v22.1c0 5.5-4.5 10-10 10s-10-4.5-10-10v-22.1c0-34.8 28.4-63.2 63.2-63.2s63.2 28.4 63.2 63.2v22.1c0 5.5-4.5 10-10 10zM440.4 182.3c-5.5 0-10-4.5-10-10v-33.4c0-5.5 4.5-10 10-10s10 4.5 10 10v33.4c0 5.5-4.5 10-10 10zM358 222.7c-2.6 0-5.1-1-7.1-2.9l-23.7-23.6c-3.9-3.9-3.9-10.2 0-14.1 3.9-3.9 10.2-3.9 14.1 0l23.7 23.6c3.9 3.9 3.9 10.2 0 14.1-1.9 1.9-4.4 2.9-7 2.9zM524.1 222.7c-2.6 0-5.1-1-7.1-2.9-3.9-3.9-3.9-10.2 0-14.1l23.6-23.6c3.9-3.9 10.2-3.9 14.1 0s3.9 10.2 0 14.1l-23.6 23.6c-1.9 1.9-4.4 2.9-7 2.9z" fill="#5A3392" /><path d="M113.5 586.8c-5.5 0-10-4.5-10-10v-39c0-5.5 4.5-10 10-10h39c5.5 0 10 4.5 10 10s-4.5 10-10 10h-29v29c0 5.5-4.5 10-10 10z" fill="#FFFFFF" /><path d="M113.8 607.3m-10 0a10 10 0 1 0 20 0 10 10 0 1 0-20 0Z" fill="#FFFFFF" /><path d="M322.3 738.1H182.7l93-216.1h139.6zM423.2 738.1h-69.6L446.7 522h69.6zM772.5 738.1h-69.6l93-216.1h69.6z" fill="#EE746C" /><path d="M262.4 771.5m-112.1 0a112.1 112.1 0 1 0 224.2 0 112.1 112.1 0 1 0-224.2 0Z" fill="#29A3EC" /><path d="M262.4 771.5m-86.2 0a86.2 86.2 0 1 0 172.4 0 86.2 86.2 0 1 0-172.4 0Z" fill="#3CDEF6" /><path d="M262.4 893.6c-39.6 0-76.9-19.3-99.8-51.7-3.2-4.5-2.1-10.7 2.4-13.9 4.5-3.2 10.8-2.1 13.9 2.4 19.2 27.1 50.4 43.3 83.4 43.3 56.3 0 102.1-45.8 102.1-102.1s-45.8-102.1-102.1-102.1-102.1 45.8-102.1 102.1c0 5.5-4.5 10-10 10s-10-4.5-10-10c0-67.3 54.8-122.1 122.1-122.1s122.1 54.8 122.1 122.1-54.7 122-122 122z" fill="#5A3392" /><path d="M262.4 844.8c-19.2 0-37.3-7.4-51.1-20.7-4-3.9-4-10.2-0.2-14.1 3.9-4 10.2-4 14.1-0.2 10 9.7 23.2 15.1 37.1 15.1 15.2 0 29.8-6.6 39.9-18 3.7-4.1 10-4.5 14.1-0.9 4.1 3.7 4.5 10 0.9 14.1-13.9 15.7-33.9 24.7-54.8 24.7z" fill="#FFFFFF" /><path d="M153.9 805.1m-10 0a10 10 0 1 0 20 0 10 10 0 1 0-20 0Z" fill="#5A3392" /><path d="M784.2 771.5m-112 0a112 112 0 1 0 224 0 112 112 0 1 0-224 0Z" fill="#29A3EC" /><path d="M784.2 893.6c-39.6 0-76.9-19.3-99.8-51.7-3.2-4.5-2.1-10.7 2.4-13.9s10.8-2.1 13.9 2.4c19.2 27.1 50.4 43.3 83.4 43.3 56.3 0 102.1-45.8 102.1-102.1s-45.8-102.1-102.1-102.1S682 715.3 682 771.6c0 5.5-4.5 10-10 10s-10-4.5-10-10c0-67.3 54.8-122.1 122.1-122.1s122.1 54.8 122.1 122.1-54.7 122-122 122z" fill="#5A3392" /><path d="M675.7 805.1m-10 0a10 10 0 1 0 20 0 10 10 0 1 0-20 0Z" fill="#5A3392" /><path d="M785.8 501.9m-10 0a10 10 0 1 0 20 0 10 10 0 1 0-20 0Z" fill="#5A3392" /><path d="M784.2 771.5m-86.2 0a86.2 86.2 0 1 0 172.4 0 86.2 86.2 0 1 0-172.4 0Z" fill="#3CDEF6" /><path d="M784.2 844.8c-19.2 0-37.3-7.4-51.1-20.7-4-3.9-4-10.2-0.2-14.1 3.9-4 10.2-4 14.1-0.2 10 9.7 23.2 15.1 37.1 15.1 15.2 0 29.8-6.6 39.9-18 3.7-4.1 10-4.5 14.1-0.9 4.1 3.7 4.5 10 0.9 14.1-13.9 15.7-33.9 24.7-54.8 24.7z" fill="#FFFFFF" /></svg>