<?xml version="1.0" standalone="no"?><!DOCTYPE svg PUBLIC "-//W3C//DTD SVG 1.1//EN" "http://www.w3.org/Graphics/SVG/1.1/DTD/svg11.dtd"><svg class="icon" width="200px" height="191.58px" viewBox="0 0 1069 1024" version="1.1" xmlns="http://www.w3.org/2000/svg"><path d="M459.294 412.612v210.823c0 10.541 15.059 18.07 24.094 12.047L647.53 530.071c9.036-6.024 9.036-18.071 0-24.095L481.882 400.565c-7.53-6.024-22.588 0-22.588 12.047z" fill="#A3D4FF" /><path d="M475.859 652.047c-6.024 0-10.541-1.506-16.565-4.518-9.035-6.023-15.059-15.058-15.059-25.6V411.106c0-10.541 6.024-19.577 15.06-25.6 10.54-6.024 22.587-6.024 31.623 0l165.647 105.412c7.53 6.023 13.553 13.553 13.553 24.094 0 10.54-4.518 19.576-13.553 25.6L492.424 646.024c-6.024 4.517-10.542 6.023-16.565 6.023z m-1.506-31.623h1.506l162.635-103.906-164.141-103.906h-1.506v207.812zM911.059 496.94H805.647V391.53H911.06v105.412z m-75.294-30.117h45.176v-45.177h-45.176v45.177z m75.294 165.647H805.647V527.059H911.06V632.47z m-75.294-30.118h45.176v-45.177h-45.176v45.177zM263.529 496.94H158.118V391.53h105.411v105.412z m-75.294-30.117h45.177v-45.177h-45.177v45.177zM263.53 632.47H158.118V527.059h105.411V632.47z m-75.294-30.118h45.177v-45.177h-45.177v45.177z" fill="#2A5082" /><path d="M971.294 752.941h-90.353v-60.235h-45.176v60.235H233.412v-60.235h-45.177v60.235H97.882V271.06h90.353v60.235h45.177V271.06h602.353v60.235h45.176V271.06h90.353V752.94z m-60.235-30.117h30.117V301.176H911.06v60.236H805.647v-60.236H263.53v60.236H158.118v-60.236H128v421.648h30.118v-60.236h105.411v60.236h542.118v-60.236H911.06v60.236z m-52.706-457.789c-78.306-100.894-195.765-159.623-323.765-159.623s-245.459 58.73-323.764 159.623l-24.095-18.07c84.33-108.424 210.824-171.67 347.86-171.67 137.035 0 263.529 63.246 346.352 171.67l-22.588 18.07z m-323.765 683.67c-137.035 0-263.53-63.246-346.353-171.67l24.094-18.07c76.8 100.894 194.26 159.623 322.26 159.623s245.458-58.73 323.764-159.623l24.094 18.07c-84.33 108.424-210.823 171.67-347.859 171.67z" fill="#2A5082" /><path d="M655.059 260.518c-30.118-96.377-75.294-155.106-120.47-155.106s-90.354 57.223-120.471 155.106l-28.612-9.036c33.13-111.435 88.847-176.188 149.082-176.188s115.953 64.753 150.588 176.188l-30.117 9.036z m-120.47 688.188c-60.236 0-115.954-64.753-150.589-176.188l28.612-9.036c30.117 96.377 75.294 155.106 120.47 155.106s90.353-57.223 120.47-155.106l28.613 9.036c-31.624 111.435-87.341 176.188-147.577 176.188z" fill="#2A5082" /></svg>