<?xml version="1.0" standalone="no"?><!DOCTYPE svg PUBLIC "-//W3C//DTD SVG 1.1//EN" "http://www.w3.org/Graphics/SVG/1.1/DTD/svg11.dtd"><svg class="icon" width="200px" height="200.00px" viewBox="0 0 1024 1024" version="1.1" xmlns="http://www.w3.org/2000/svg"><path d="M815.1 208.3l117 190.8-149.5 85.6s-133.1-51-77.6-140.8 110.1-135.6 110.1-135.6zM249.6 209.2L132.6 400l149.5 85.6s133.1-51 77.6-140.8-110.1-135.6-110.1-135.6z" fill="#F9D447" /><path d="M793.5 346.5l27.8-55.6 70.7 55.6-74.6-130.8-15.9 33.9zM275.5 333.8l-27.8-55.6-70.7 55.6L251.7 203l15.8 33.9z" fill="#FFFFFF" /><path d="M786.3 432.9l1.8 48.6L933.7 395l-26.1-35.1zM156.7 369.9l-19.8 38L281.7 489l-0.3-52.9z" fill="#FFAC1F" /><path d="M779.7 422.974l124.412-76.034 10.43 17.066L790.13 440.04z"  /><path d="M782.6 494.7c-1.2 0-2.4-0.2-3.6-0.7-3.1-1.2-75.5-29.5-93.5-82.9-7.9-23.5-4.2-47.9 11-72.5 55.7-90 107.4-135.9 109.6-137.8 2.2-1.9 5.1-2.8 8-2.4 2.9 0.4 5.5 2.1 7 4.6l119.4 190.8c1.4 2.3 1.9 5.1 1.2 7.7-0.7 2.6-2.4 4.9-4.7 6.2l-149.5 85.6c-1.5 0.9-3.2 1.4-4.9 1.4zM810.7 224c-16.9 16.7-56.2 59-97.2 125.2-12.1 19.6-15.1 37.8-9.1 55.6 12.8 38 62.5 62.3 77.5 68.8l136.2-78L810.7 224zM152.095 369.184l10.43-17.064 131.563 80.416-10.43 17.064z"  /><path d="M282.1 495.7c-1.7 0-3.4-0.4-5-1.3l-149.5-85.6c-2.4-1.4-4.1-3.6-4.7-6.2-0.7-2.6-0.2-5.4 1.2-7.7l119.4-190.8c1.6-2.5 4.1-4.2 7-4.6 2.9-0.4 5.8 0.4 8 2.4 2.2 1.9 53.9 47.8 109.6 137.8 15.2 24.6 18.9 49 11 72.5-18 53.4-90.5 81.7-93.5 82.9-1.1 0.3-2.3 0.6-3.5 0.6z m-135.5-99.2l136.2 78c15-6.6 64.7-31 77.5-68.9 6-17.8 3-36-9.1-55.6-41-66.3-80.4-108.5-97.2-125.2L146.6 396.5z"  /><path d="M779.4 937.7c0-56.2 8.8-279.4 3.2-386.1-9.2-175.4 30.1-343.3 30.1-343.3s-54.6-71.1-194.6-92.9H450.5c-131.6 23-194.6 92.9-194.6 92.9s42.2 158.2 30.3 348.8c-6.7 106.7 5.2 320.8 5.2 377h490.4" fill="#6EA0A7" /><path d="M445.7 145.9c-86.6 15.4-151.8 73-151.8 73s29.7 169.6 14.2 291.3c-12.4 97.4-26.5 238.1-26.5 238.1s17.7-196.7-1.8-399.6l-27.1-140.4s152-96.7 172.5-91.1c19.1 5.1 34.3 26.2 20.5 28.7zM619.3 135.9c144.8 49.8 153.8 82.3 153.8 82.3s-23.7 168.6-15.8 266.5c7.9 97.9 26.1 263.6 26.1 263.6s-8-151.2 4.5-399.6L815 208.3s-100-85.9-173.8-90.7c-12.4 3.4-23.2-9.4-21.9 18.3z" fill="#FFFFFF" /><path d="M771.6 827l-16.8 75H315.5l-23.9-62v103h484.5z" fill="#498284" /><path d="M779.5 953H289.1c-5.5 0-10-4.5-10-10 0-23.6-0.7-103.9-1.4-197-1-125.4-2.3-281.5-2.3-343.5 0-103.7-31.7-189.9-32-190.7-1.4-3.7-0.4-7.9 2.4-10.7 1-1 25.1-24.3 63.7-47.8 35.8-21.9 91.3-47.9 152.3-47.9h145.1c70 0 124.3 26.2 157.5 48.1 36 23.8 55.3 47.5 56.2 48.5 2.1 2.7 2.8 6.2 1.7 9.5-0.3 0.9-28.7 87.2-28.7 191.1 0 62-1.4 218.1-2.5 343.5-0.8 93.1-1.5 173.4-1.5 197 0 2.7-1.1 5.2-2.9 7.1-2 1.7-4.6 2.8-7.2 2.8zM299 933h470.5c0.1-31.8 0.8-104.5 1.5-187.2 1.1-125.4 2.5-281.4 2.5-343.3 0-93.3 21.6-170.8 28-191.9-6.8-7.4-23.5-24.2-48.8-40.9-30.8-20.2-81.1-44.4-145.8-44.4H461.7c-94.5 0-177.3 67.9-197.4 85.8 7.5 22.3 31 99.1 31 191.3 0 61.9 1.3 218 2.3 343.3 0.7 82.8 1.3 155.5 1.4 187.3z"  /><path d="M532.9 205l52.6-124H480.2z" fill="#498284" /><path d="M480.2 81L443 113.9l20.4 135.7 69.5-44.6zM585.5 81l37.2 32.9-20.4 135.7-69.4-44.6z" fill="#F9D447" /><path d="M532.9 215c-4 0-7.6-2.4-9.2-6.1L471 84.9c-1.3-3.1-1-6.6 0.9-9.4 1.9-2.8 5-4.5 8.3-4.5h105.2c3.4 0 6.5 1.7 8.3 4.5 1.9 2.8 2.2 6.3 0.9 9.4l-52.6 124c-1.5 3.7-5.1 6.1-9.1 6.1zM495.3 91l37.5 88.4L570.4 91h-75.1z"  /><path d="M453.8 133.7l31.8-22.6-8-24.4-31.9 30.8zM574.9 111.4l13.4-19.2 30.9 28.4-5.5 16.9z" fill="#FFFFFF" /><path d="M456.5 216.3l62.2-38.1 11.7 28.4-67.5 39.5zM538.8 202.2l10.7-26.6 57.4 33.6-6.3 29.8z" fill="#FFAC1F" /><path d="M602.3 259.6c-1.9 0-3.8-0.5-5.4-1.6l-69.4-44.6c-4.1-2.6-5.7-7.8-3.8-12.3l52.6-124c1.3-3 3.9-5.1 7-5.8 3.1-0.7 6.4 0.1 8.8 2.3l37.2 32.9c2.5 2.2 3.8 5.6 3.3 9L612.2 251c-0.5 3.4-2.7 6.2-5.8 7.6-1.3 0.7-2.7 1-4.1 1z m-56.9-58.5l49.3 31.7 17.3-115-22.7-20.1-43.9 103.4z"  /><path d="M463.4 259.6c-1.4 0-2.8-0.3-4.1-0.9-3.1-1.4-5.3-4.3-5.8-7.6l-20.4-135.7c-0.5-3.4 0.7-6.7 3.3-9l37.2-32.9c2.4-2.1 5.7-3 8.8-2.3 3.1 0.7 5.7 2.9 7 5.8L542 201c1.9 4.5 0.3 9.7-3.8 12.3L468.8 258c-1.6 1-3.5 1.6-5.4 1.6z m-9.7-141.8l17.3 115 49.3-31.7-43.8-103.4-22.8 20.1z"  /><path d="M524.5 209.2h19.4v142.4h-19.4z"  /></svg>