<?xml version="1.0" standalone="no"?><!DOCTYPE svg PUBLIC "-//W3C//DTD SVG 1.1//EN" "http://www.w3.org/Graphics/SVG/1.1/DTD/svg11.dtd"><svg class="icon" width="200px" height="200.00px" viewBox="0 0 1024 1024" version="1.1" xmlns="http://www.w3.org/2000/svg"><path d="M284.662308 791.133377a322.37037 322.37037 0 1 0 454.609701-457.187755 322.37037 322.37037 0 1 0-454.609701 457.187755Z" fill="#E9EAEB" /><path d="M391.901235 227.555556h353.975308v379.259259h-353.975308z" fill="#FFFFFF" /><path d="M758.518519 619.45679h-379.25926V214.91358h379.25926v404.54321z m-353.975309-25.28395h328.691358V240.197531h-328.691358v353.975309z" fill="#2A5082" /><path d="M670.024691 290.765432h-25.28395v-91.022222c0-32.869136-41.718519-60.681481-75.851852-60.681482s-75.851852 26.548148-75.851852 60.681482V290.765432h-25.283951v-91.022222c0-49.303704 53.096296-85.965432 101.135803-85.965432s101.135802 36.661728 101.135802 85.965432V290.765432z" fill="#2A5082" /><path d="M455.111111 278.123457h50.567901v25.28395h-50.567901zM632.098765 278.123457h50.567902v25.28395h-50.567902z" fill="#2A5082" /><path d="M816.671605 495.565432c-30.340741 7.585185-56.888889 25.283951-78.380247 65.738272L670.024691 594.17284l-2.528395 1.264197c-7.585185-8.849383-20.22716-13.906173-35.397531-13.906173h-73.323456c-13.906173 0-56.888889-25.283951-79.644445-25.28395H385.580247c-24.019753 0-53.096296 7.585185-69.530864 24.019753-26.548148 26.548148-92.28642 88.493827-99.871605 94.814814 41.718519 35.397531 127.683951 117.57037 146.646913 134.004939 25.283951-25.283951 35.397531-49.303704 56.888889-49.303704H651.061728c18.962963 0 123.891358-96.079012 137.797531-111.249383 12.641975-13.906173 82.17284-103.664198 97.34321-140.325926-11.377778-15.17037-37.925926-20.22716-69.530864-12.641975z" fill="#FFFFFF" /><path d="M361.560494 825.520988l-8.849383-7.585186c-7.585185-6.320988-22.755556-21.491358-42.982716-40.454321-32.869136-30.340741-77.116049-72.059259-102.4-94.814814l-11.377778-8.849383 11.377778-10.11358c6.320988-5.05679 73.323457-68.266667 98.607407-93.550618 21.491358-20.22716 55.624691-26.548148 79.644445-26.548148h93.550617c15.17037 0 35.397531 8.849383 53.096296 15.170371 8.849383 3.792593 22.755556 10.11358 26.548149 10.11358h73.323456c15.17037 0 27.812346 3.792593 37.925926 11.377778l59.417284-29.076544c20.22716-37.925926 48.039506-59.417284 84.701235-68.266666 36.661728-8.849383 67.002469-2.528395 80.908642 16.434568l3.792592 6.320987-2.528395 6.320988c-17.698765 40.454321-88.493827 131.476543-99.871605 144.118519-5.05679 6.320988-118.834568 115.041975-147.911111 115.041975H418.449383c-7.585185 0-15.17037 7.585185-26.548148 21.491358-6.320988 7.585185-12.641975 15.17037-21.491358 24.019753l-8.849383 8.849383zM233.876543 673.817284c26.548148 22.755556 63.209877 56.888889 93.550617 85.965432 13.906173 12.641975 25.283951 24.019753 34.133334 31.604938 3.792593-5.05679 7.585185-8.849383 11.377778-13.906173 13.906173-16.434568 25.283951-31.604938 46.775308-31.604938H651.061728c16.434568-3.792593 111.249383-87.22963 128.948149-106.192592 12.641975-13.906173 72.059259-91.022222 91.022222-128.948149-8.849383-5.05679-27.812346-7.585185-49.303704-2.528395-30.340741 7.585185-53.096296 25.283951-69.530864 59.417284l-2.528395 3.792593-61.945679 30.340741c3.792593 7.585185 6.320988 16.434568 6.320987 25.28395 0 27.812346-20.22716 56.888889-60.681481 56.888889h-139.061728v-25.28395h139.061728c24.019753 0 35.397531-16.434568 35.397531-31.604939s-12.641975-32.869136-36.661729-32.869135h-73.323456c-8.849383 0-18.962963-3.792593-36.661729-11.377778-15.17037-6.320988-32.869136-13.906173-42.982716-13.906173H385.580247c-18.962963 0-46.775309 6.320988-61.945679 20.22716-21.491358 20.22716-67.002469 64.474074-89.758025 84.701235z" fill="#2A5082" /><path d="M138.695111 707.280593l85.801087-85.826371 190.438716 190.388148-85.801087 85.813729z" fill="#A3D4FF" /><path d="M329.955556 915.279012L121.362963 706.68642l103.664197-103.664198 208.592593 208.592593-103.664197 103.664197zM156.760494 706.68642l173.195062 173.195061 68.266666-68.266666-173.195062-171.930864-68.266666 67.002469z" fill="#2A5082" /><path d="M200.400593 703.715556l17.875753-17.875754 33.084049 33.071408-17.888395 17.875753z" fill="#2A5082" /><path d="M834.37037 303.407407h25.283951v25.283951h-25.283951zM834.37037 353.975309h25.283951v25.28395h-25.283951zM809.08642 328.691358h25.28395v25.283951h-25.28395zM859.654321 328.691358h25.283951v25.283951h-25.283951zM733.234568 783.802469h37.925926v25.283951h-37.925926zM821.728395 783.802469h37.925926v25.283951h-37.925926zM783.802469 821.728395h25.283951v37.925926h-25.283951zM783.802469 733.234568h25.283951v37.925926h-25.283951zM193.422222 344.847802l25.031111-25.031111 17.888395 17.888395-25.031111 25.031112zM256.632099 281.637926l25.031111-25.031111 17.888395 17.888395-25.031111 25.031111zM256.632099 337.705086l17.888395-17.888395 25.031111 25.031111-17.875753 17.875754zM193.422222 274.49521l17.888395-17.888395 25.031111 25.031111-17.875753 17.875753z" fill="#BCC0C4" /></svg>