<?xml version="1.0" standalone="no"?><!DOCTYPE svg PUBLIC "-//W3C//DTD SVG 1.1//EN" "http://www.w3.org/Graphics/SVG/1.1/DTD/svg11.dtd"><svg class="icon" width="200px" height="197.30px" viewBox="0 0 1038 1024" version="1.1" xmlns="http://www.w3.org/2000/svg"><path d="M990.875865 532.199385c-2.707692 73.476923-16.738462 114.215385-41.969231 122.338461s-55.630769 8.492308-91.076923 1.353846c-20.8-44.430769-56.246154-66.461538-106.215385-66.215384-49.969231 0.246154-80.861538 22.4-92.430769 66.215384l-251.446154 3.446154c-12.8-46.4-46.153846-69.661538-100.307692-69.661538s-86.153846 24.123077-96.123077 72.492307l-144 0.984616-54.030769 198.4h871.138461c40.738462-1.969231 73.476923-13.046154 98.338462-33.230769 23.384615-18.953846 37.292308-53.784615 41.96923-104.492308 0.615385-6.4 0.246154-12.923077-0.984615-19.2l-32.861538-172.430769z" fill="#D4F1FF" /><path d="M884.414326 874.845538H13.275865c-4.184615 0-8-1.969231-10.584616-5.16923-2.461538-3.323077-3.323077-7.507692-2.215384-11.569231l54.030769-198.4c1.6-5.784615 6.769231-9.723077 12.676923-9.846154l133.661538-0.861538c13.784615-47.507692 50.338462-72.615385 106.461539-72.615385 29.661538 0 54.276923 6.646154 73.230769 19.815385 16.738462 11.692308 29.046154 28.307692 36.676923 49.723077l231.876923-3.2c15.138462-43.2 50.338462-66.092308 102.276923-66.338462h1.107693c52.553846 0 90.830769 22.769231 114.215384 67.692308 30.276923 5.415385 56.492308 4.676923 78.030769-2.215385 10.830769-3.446154 29.538462-22.4 32.738462-110.153846 0.246154-6.769231 5.538462-12.307692 12.307692-12.8 6.769231-0.492308 12.923077 4.184615 14.153846 10.830769l32.984616 172.430769c1.476923 7.507692 1.846154 15.261538 1.107692 22.892308-4.923077 54.153846-20.676923 92.307692-46.892308 113.476923-26.953846 21.907692-62.646154 34.092308-106.092307 36.184616-0.246154 0.123077-0.369231 0.123077-0.615385 0.123076z m-853.661538-26.584615h853.292307c37.538462-1.846154 67.938462-12.061538 90.338462-30.276923 20.307692-16.492308 32.861538-48.615385 37.169231-95.384615 0.492308-5.169231 0.246154-10.338462-0.738462-15.507693l-17.6-92.061538c-0.738462 2.461538-1.476923 4.8-2.215384 7.138461-8.369231 24.492308-21.169231 39.630769-38.03077 44.923077-27.323077 8.738462-60.307692 9.230769-97.723077 1.723077-4.184615-0.861538-7.630769-3.569231-9.353846-7.384615-18.461538-39.384615-48.861538-58.584615-93.169231-58.584616h-0.861538c-44.184615 0.246154-69.538462 18.215385-79.753846 56.369231-1.476923 5.784615-6.646154 9.846154-12.676923 9.846154l-251.446154 3.446154c-6.030769 0.123077-11.446154-3.938462-13.046154-9.723077-5.538462-20.307692-15.138462-34.953846-29.415385-44.8-14.4-9.969231-33.846154-15.015385-58.092307-15.015385-48 0-74.338462 19.692308-83.076923 61.907693-1.230769 6.153846-6.646154 10.584615-12.923077 10.584615l-133.907693 0.861539-46.76923 171.938461z" fill="#1C1B55" /><path d="M984.229711 692.568615c-7.876923 27.2-15.753846 44.184615-23.753846 51.2-8 7.015385-26.461538 12.923077-55.261539 17.969231H68.783557" fill="#D4F1FF" /><path d="M906.445095 775.030154h-38.276923v-26.584616h35.938462c9.6-1.723077 18.092308-3.446154 25.230769-5.415384l6.892308 25.723077c-8.123077 2.215385-17.846154 4.307692-28.676923 6.153846l-1.107693 0.123077z m-60.553846 0h-65.353846v-26.584616h65.353846v26.584616z m-87.507692 0h-65.353846v-26.584616h65.353846v26.584616z m-87.507692 0h-65.353847v-26.584616h65.353847v26.584616z m-87.507693 0h-65.353846v-26.584616h65.353846v26.584616z m-87.507692 0h-65.353846v-26.584616h65.353846v26.584616z m-87.507692 0H342.998942v-26.584616h65.353846v26.584616z m-87.507693 0h-65.353846v-26.584616H320.845095v26.584616z m-87.507692 0h-65.353846v-26.584616h65.353846v26.584616z m-87.507692 0H80.475865v-26.584616h65.353846v26.584616z m813.907692-14.892308l-12.184615-23.630769c2.338462-1.230769 3.569231-2.215385 4.307692-2.707692 2.707692-2.338462 10.092308-11.569231 19.692308-44.923077l25.6 7.384615c-8.738462 30.276923-17.6 48.615385-27.692308 57.6-2.830769 2.215385-5.907692 4.307692-9.723077 6.276923z" fill="#1C1B55" /><path d="M143.887557 290.461538h777.969231c1.846154 0 3.323077 1.476923 3.323077 3.323077v403.692308c0 1.846154-1.476923 3.323077-3.323077 3.323077h-57.23077c-3.076923-69.169231-37.784615-104.492308-104.246153-105.969231s-103.753846 33.846154-112 105.969231h-230.153847c-10.830769-70.646154-46.769231-105.969231-107.56923-105.969231s-97.353846 35.323077-109.661539 105.969231h-57.107692c-1.846154 0-3.323077-1.476923-3.323077-3.323077v-403.692308c0-1.846154 1.476923-3.323077 3.323077-3.323077z" fill="#D4F1FF" /><path d="M921.856788 714.092308h-69.907693l-0.615384-12.676923c-2.707692-62.276923-31.753846-91.938462-91.323077-93.292308-29.907692-0.738462-52.184615 6.4-68.430769 21.661538-16.246154 15.384615-26.338462 39.753846-30.03077 72.492308l-1.353846 11.815385h-253.292307l-1.723077-11.323077c-4.923077-32.246154-15.507692-56.492308-31.261539-72.123077-15.507692-15.261538-36.184615-22.646154-63.138461-22.646154-27.076923 0-48 7.507692-63.753847 22.769231-16.123077 15.630769-27.076923 39.876923-32.738461 72.246154l-1.969231 11.076923h-68.430769c-9.107692 0-16.615385-7.507692-16.615385-16.615385v-403.692308c0-9.107692 7.507692-16.615385 16.615385-16.615384h777.969231c9.107692 0 16.615385 7.507692 16.615384 16.615384v403.692308c0 9.107692-7.384615 16.615385-16.615384 16.615385z m-44.8-26.584616h34.953846V303.753846h-758.153846v383.753846h36.307692c7.138462-32.615385 20.061538-58.092308 38.276923-75.815384 20.8-20.061538 48.492308-30.276923 82.338462-30.276923 33.846154 0 61.415385 10.215385 81.846153 30.276923 17.969231 17.6 30.276923 43.076923 36.923077 75.692307h207.384616c5.538462-33.353846 17.846154-59.323077 36.553846-77.046153 21.169231-20.061538 50.584615-29.784615 87.261538-29.046154 69.046154 1.723077 109.046154 38.276923 116.307693 106.215384z" fill="#1C1B55" /><path d="M237.014942 701.288615a71.507692 71.507692 0 1 0 143.015384 0 71.507692 71.507692 0 1 0-143.015384 0Z" fill="#FFF7A6" /><path d="M308.522634 786.088615c-46.769231 0-84.8-38.030769-84.8-84.8s38.030769-84.8 84.8-84.8c46.769231 0 84.8 38.030769 84.8 84.8S355.291865 786.088615 308.522634 786.088615z m0-143.015384C276.399557 643.073231 250.307249 669.165538 250.307249 701.288615s26.092308 58.215385 58.215385 58.215385 58.215385-26.092308 58.215384-58.215385-26.215385-58.215385-58.215384-58.215384z" fill="#1C1B55" /><path d="M262.491865 737.719385c10.707692 13.292308 27.2 21.784615 45.538461 21.784615 32.369231 0 58.584615-26.215385 58.584616-58.584615 0-18.461538-8.492308-34.830769-21.784616-45.538462 8.123077 10.092308 13.046154 22.892308 13.046154 36.923077 0 32.369231-26.215385 58.584615-58.584615 58.584615-13.907692-0.123077-26.707692-5.046154-36.8-13.16923z" fill="#80CFF5" /><path d="M685.849403 701.287385a71.507692 71.507692 0 1 0 143.015385 0 71.507692 71.507692 0 1 0-143.015385 0Z" fill="#FFF7A6" /><path d="M757.357095 786.087385c-46.769231 0-84.8-38.030769-84.8-84.8S710.587865 616.487385 757.357095 616.487385 842.157095 654.518154 842.157095 701.287385s-38.030769 84.8-84.8 84.8z m0-143.015385C725.234018 643.072 699.141711 669.164308 699.141711 701.287385s26.092308 58.215385 58.215384 58.215384 58.215385-26.092308 58.215385-58.215384-26.215385-58.215385-58.215385-58.215385z" fill="#1C1B55" /><path d="M773.234018 757.287385c16.369231-4.676923 30.646154-16.492308 37.784616-33.476923 12.676923-29.784615-1.230769-64.246154-31.138462-76.8-16.984615-7.138462-35.446154-5.784615-50.461538 2.215384 12.430769-3.569231 26.215385-3.076923 39.015384 2.461539 29.907692 12.553846 43.815385 46.892308 31.138462 76.676923-5.415385 12.923077-14.892308 22.769231-26.338462 28.923077z" fill="#80CFF5" /><path d="M169.979865 323.692308h-22.769231c-3.692308 0-6.646154 2.953846-6.646154 6.646154v227.446153h36.676923c12.184615 0 22.153846-9.969231 22.153846-22.153846V353.107692c0-16.246154-13.169231-29.415385-29.415384-29.415384z" fill="#FFFFFF" /><path d="M177.241403 571.076923h-49.969231V330.338462c0-10.953846 8.984615-19.938462 19.938462-19.938462h22.769231c23.507692 0 42.707692 19.2 42.707692 42.707692v182.523077c0 19.569231-15.876923 35.446154-35.446154 35.446154z m-23.384615-26.584615h23.384615c4.923077 0 8.861538-3.938462 8.861539-8.861539V353.107692c0-8.861538-7.261538-16.123077-16.123077-16.123077h-16.123077v207.507693z" fill="#1C1B55" /><path d="M250.349095 335.876923h161.846154v165.169231h-161.846154z" fill="#FFFFFF" /><path d="M412.072172 514.461538h-161.723077c-7.384615 0-13.292308-5.907692-13.292307-13.292307V335.876923c0-7.384615 5.907692-13.292308 13.292307-13.292308h161.846154c7.384615 0 13.292308 5.907692 13.292308 13.292308v165.169231c-0.123077 7.384615-6.030769 13.415385-13.415385 13.415384z m-148.430769-26.584615h135.261539V349.169231h-135.261539v138.707692z" fill="#1C1B55" /><path d="M484.195249 335.876923h161.846154v165.169231h-161.846154z" fill="#FFFFFF" /><path d="M645.918326 514.461538h-161.723077c-7.384615 0-13.292308-5.907692-13.292307-13.292307V335.876923c0-7.384615 5.907692-13.292308 13.292307-13.292308h161.846154c7.384615 0 13.292308 5.907692 13.292308 13.292308v165.169231c-0.123077 7.384615-6.030769 13.415385-13.415385 13.415384z m-148.430769-26.584615h135.261538V349.169231h-135.261538v138.707692z" fill="#1C1B55" /><path d="M718.041403 335.876923h161.846154v165.169231h-161.846154z" fill="#FFFFFF" /><path d="M879.76448 514.461538h-161.723077c-7.384615 0-13.292308-5.907692-13.292308-13.292307V335.876923c0-7.384615 5.907692-13.292308 13.292308-13.292308h161.846154c7.384615 0 13.292308 5.907692 13.292308 13.292308v165.169231c-0.123077 7.384615-6.030769 13.415385-13.415385 13.415384z m-148.430769-26.584615h135.261538V349.169231h-135.261538v138.707692z" fill="#1C1B55" /><path d="M452.810634 672.615385c0.861538 3.076923 53.046154 8.246154 156.553846 15.261538h-179.2c-8.246154-30.523077-17.107692-51.938462-26.830769-64.246154s-23.261538-23.015385-40.738462-32.369231c49.230769 17.230769 79.261538 44.307692 90.215385 81.353847z" fill="#80CFF5" /><path d="M56.256788 404.676923h47.630769v90.953846h-47.630769z" fill="#FFF7A6" /><path d="M103.887557 508.923077h-47.630769c-7.384615 0-13.292308-5.907692-13.292308-13.292308v-90.953846c0-7.384615 5.907692-13.292308 13.292308-13.292308h47.630769c7.384615 0 13.292308 5.907692 13.292308 13.292308v90.953846c0 7.261538-5.907692 13.292308-13.292308 13.292308z m-34.338462-26.584615h21.046154v-64.369231h-21.046154v64.369231z" fill="#1C1B55" /><path d="M93.179865 495.630769c-1.107692 19.2 1.846154 31.261538 8.738461 36.307693s20.8 14.153846 41.723077 27.076923" fill="#D4F1FF" /><path d="M143.641403 572.307692c-2.338462 0-4.8-0.615385-7.015385-1.96923-21.415385-13.292308-35.323077-22.276923-42.584615-27.692308-10.953846-8-15.507692-23.630769-14.153846-47.876923 0.369231-7.384615 6.646154-12.923077 14.030769-12.553846 7.384615 0.369231 12.923077 6.769231 12.553846 14.030769-1.230769 20.923077 3.323077 24.861538 3.323077 24.861538 6.646154 4.8 20.307692 13.784615 40.861539 26.461539 6.276923 3.815385 8.123077 12.061538 4.307692 18.338461-2.584615 4.184615-6.892308 6.4-11.323077 6.4z" fill="#1C1B55" /><path d="M396.687557 350.523077l-23.753846 137.230769h23.753846zM632.010634 350.4l-23.753846 137.230769h23.753846zM865.856788 350.4l-23.753846 137.230769h23.753846z" fill="#D4F1FF" /><path d="M122.841403 598.769231l47.507692 14.4v39.015384l-47.507692 13.292308z" fill="#FFF7A6" /><path d="M122.841403 677.661538c-2.584615 0-5.169231-0.861538-7.384615-2.461538-3.076923-2.338462-4.8-5.907692-4.8-9.723077v-66.707692c0-3.815385 1.846154-7.507692 4.923077-9.846154 3.076923-2.338462 7.138462-2.953846 10.830769-1.846154l47.507692 14.4c5.169231 1.6 8.615385 6.276923 8.615385 11.692308v39.015384c0 5.415385-3.692308 10.215385-8.861539 11.692308l-47.507692 13.292308c-1.107692 0.369231-2.215385 0.492308-3.323077 0.492307z m12.184615-62.523076v34.215384l23.138462-6.523077v-20.8l-23.138462-6.892307z" fill="#1C1B55" /><path d="M293.795249 401.230769c-2.092308-7.261538-1.107692-11.938462 2.953846-14.030769 5.907692-3.2 27.815385-14.276923 36.184616-3.2s18.215385 15.015385 11.569231 30.4-9.230769 19.692308-11.569231 19.692308c-1.6 0-2.338462 3.938462-2.338462 11.692307l6.153846 10.338462c11.692308 21.538462 16.861538 32.246154 15.384616 32.246154h-51.938462c-2.707692 0 0.738462-10.707692 10.338462-32.246154-2.707692-2.830769-2.707692-4.923077 0-6.276923 2.707692-1.353846 4.553846-2.707692 5.661538-4.061539-8.861538-0.369231-13.784615-1.353846-14.646154-2.953846-0.984615-1.6-1.353846-3.569231-1.353846-5.907692-1.107692 0-2.092308-0.861538-2.092307-2.092308 0-0.369231 0.123077-0.738462 0.246153-0.984615l3.2-5.661539c-5.169231 2.215385-7.753846 2.953846-7.753846 2.461539v-2.461539c-5.169231-1.353846-7.507692-2.707692-6.769231-4.061538s2.215385-3.446154 4.8-6.4v-9.6c0-1.723077 0.615385-4.061538 1.969231-6.892308z" fill="#D4F1FF" /><path d="M529.856788 401.230769c-2.092308-7.261538-1.107692-11.938462 2.953846-14.030769 5.907692-3.2 27.815385-14.276923 36.184615-3.2 3.569231 4.676923 10.461538 4.8 14.769231 17.230769 5.661538 16.492308 9.969231 48.615385 2.092308 57.723077-3.815385 4.430769-5.415385-2.461538-10.215385-5.046154-2.338462-1.230769-5.538462-1.6-6.523077-2.092307-3.076923-1.723077-1.723077-0.369231 3.815385 4.430769 4.061538 5.907692 6.892308 10.215385 8.369231 13.046154 5.907692 11.323077 8 19.2 6.892307 19.2h-50.461538c-1.476923 0-3.815385-5.169231-1.353846-11.815385 0.738462-2.092308 5.661538-5.538462 7.876923-9.846154 1.107692-2.092308 1.846154-5.538462 2.461538-10.584615-2.707692-2.830769-2.707692-4.923077 0-6.276923 2.707692-1.353846 4.553846-2.707692 5.661539-4.061539-8.861538-0.369231-13.784615-1.353846-14.646154-2.953846-0.984615-1.6-1.353846-3.569231-1.353846-5.907692-0.984615 0-1.846154-0.861538-1.846154-1.846154 0-0.369231 0.123077-0.738462 0.369231-0.984615l3.56923-5.292308c-2.830769 3.815385-4.553846 5.538462-5.292307 5.046154-0.738462-0.492308-1.723077-2.338462-3.076923-5.661539-3.938462-1.476923-5.661538-2.953846-4.923077-4.184615s1.6-3.446154 2.953846-6.276923v-9.6c0-1.723077 0.369231-4.184615 1.723077-7.015385z" fill="#80CFF5" /><path d="M765.918326 401.230769c-2.092308-7.261538-1.107692-11.938462 2.953846-14.030769 5.907692-3.2 27.815385-14.153846 36.307693-3.2s18.215385 15.015385 11.56923 30.4-9.230769 19.692308-11.56923 19.692308c-1.6 0-2.338462 3.938462-2.338462 11.692307l6.153846 10.338462c11.692308 21.538462 16.861538 32.246154 15.384616 32.246154h-51.938462c-2.707692 0 0.738462-10.707692 10.338462-32.246154-2.707692-2.830769-2.707692-4.923077 0-6.276923 2.707692-1.353846 4.553846-2.707692 5.661538-4.061539-8.861538-0.369231-13.784615-1.353846-14.646154-2.953846-0.984615-1.6-1.353846-3.569231-1.353846-5.907692-1.107692 0-2.092308-0.861538-2.092308-2.092308 0-0.369231 0.123077-0.738462 0.246154-0.984615l3.2-5.661539c-5.169231 2.215385-7.753846 2.953846-7.753846 2.461539v-2.461539c-5.169231-1.353846-7.507692-2.707692-6.769231-4.061538s2.215385-3.446154 4.8-6.4v-9.6c0-1.723077 0.492308-4.061538 1.846154-6.892308z" fill="#D4F1FF" /><path d="M781.891249 234.953846H588.537403c-8.123077 0-14.769231-6.646154-14.769231-14.769231s6.646154-14.769231 14.769231-14.76923h193.353846c8.123077 0 14.769231 6.646154 14.769231 14.76923s-6.646154 14.769231-14.769231 14.769231z m-239.507692 0h-49.107692c-8.123077 0-14.769231-6.646154-14.769231-14.769231s6.646154-14.769231 14.769231-14.76923H542.383557c8.123077 0 14.769231 6.646154 14.769231 14.76923s-6.523077 14.769231-14.769231 14.769231z m-102.646154 0H155.06048c-8.123077 0-14.769231-6.646154-14.769231-14.769231s6.646154-14.769231 14.769231-14.76923h284.676923c8.123077 0 14.769231 6.646154 14.769231 14.76923s-6.646154 14.769231-14.769231 14.769231z" fill="#1C1B55" /><path d="M360.352788 163.2h147.323077m46.646153 0H886.998942" fill="#D4F1FF" /><path d="M886.998942 177.969231H554.322018c-8.123077 0-14.769231-6.646154-14.76923-14.769231s6.646154-14.769231 14.76923-14.769231H886.998942c8.123077 0 14.769231 6.646154 14.76923 14.769231s-6.646154 14.769231-14.76923 14.769231z m-379.323077 0H360.352788c-8.123077 0-14.769231-6.646154-14.769231-14.769231s6.646154-14.769231 14.769231-14.769231h147.323077c8.123077 0 14.769231 6.646154 14.76923 14.769231s-6.646154 14.769231-14.76923 14.769231z" fill="#1C1B55" /></svg>