<?xml version="1.0" standalone="no"?><!DOCTYPE svg PUBLIC "-//W3C//DTD SVG 1.1//EN" "http://www.w3.org/Graphics/SVG/1.1/DTD/svg11.dtd"><svg class="icon" width="200px" height="200.00px" viewBox="0 0 1024 1024" version="1.1" xmlns="http://www.w3.org/2000/svg"><path d="M517.12 407.04c-1.28-1.28-3.84-2.56-5.12-2.56-2.56 0-3.84 1.28-5.12 2.56l-98.56 98.56c-2.56 2.56-2.56 7.68 0 10.24l98.56 98.56c2.56 2.56 7.68 2.56 10.24 0l98.56-98.56c2.56-2.56 2.56-7.68 0-10.24l-98.56-98.56z" fill="#FFD654" /><path d="M634.88 488.96l-98.56-98.56c-12.8-12.8-34.56-12.8-47.36 0l-98.56 98.56c-12.8 12.8-12.8 34.56 0 47.36l98.56 98.56c6.4 6.4 14.08 10.24 23.04 10.24s16.64-3.84 23.04-10.24l98.56-98.56c14.08-14.08 14.08-34.56 1.28-47.36z m-17.92 28.16l-98.56 98.56c-2.56 2.56-7.68 2.56-10.24 0l-98.56-98.56c-2.56-2.56-2.56-7.68 0-10.24l98.56-98.56c1.28-1.28 3.84-2.56 5.12-2.56 2.56 0 3.84 1.28 5.12 2.56l98.56 98.56c2.56 2.56 2.56 7.68 0 10.24z" fill="#2B3B48" /><path d="M936.96 561.92c-60.16 0-120.32 38.4-179.2 112.64A294.656 294.656 0 0 1 512 806.4c-102.4 0-193.28-52.48-245.76-131.84-58.88-74.24-119.04-112.64-179.2-112.64-24.32 0-43.52 6.4-57.6 12.8C60.16 812.8 264.96 998.4 512 998.4s451.84-185.6 482.56-424.96c-14.08-5.12-33.28-11.52-57.6-11.52z" fill="#9CE7FD" /><path d="M689.262 220.021l19.845 16.172-66.305 81.365-19.845-16.172zM790.808 310.913L710 377.894l-16.337-19.709 80.808-66.982z" fill="#2B3B48" /><path d="M512 0C229.12 0 0 229.12 0 512s229.12 512 512 512 512-229.12 512-512S794.88 0 512 0zM29.44 573.44c12.8-5.12 33.28-12.8 57.6-12.8 60.16 0 120.32 38.4 179.2 112.64C318.72 753.92 409.6 806.4 512 806.4s193.28-52.48 245.76-133.12c58.88-74.24 119.04-112.64 179.2-112.64 24.32 0 43.52 6.4 57.6 12.8C963.84 812.8 759.04 998.4 512 998.4S60.16 812.8 29.44 573.44zM512 25.6c268.8 0 486.4 217.6 486.4 486.4 0 11.52 0 23.04-1.28 35.84-14.08-5.12-34.56-11.52-60.16-11.52-38.4 0-88.32 14.08-143.36 62.72 8.96-26.88 12.8-56.32 12.8-87.04 0-42.24-8.96-81.92-24.32-119.04l-23.04 10.24c14.08 33.28 21.76 70.4 21.76 108.8 0 148.48-120.32 268.8-268.8 268.8S243.2 660.48 243.2 512 363.52 243.2 512 243.2c29.44 0 57.6 5.12 84.48 14.08l8.96-24.32C576 222.72 544 217.6 512 217.6c-162.56 0-294.4 131.84-294.4 294.4 0 30.72 5.12 58.88 12.8 87.04-55.04-48.64-104.96-62.72-143.36-62.72-26.88 0-46.08 6.4-60.16 12.8-1.28-12.8-1.28-24.32-1.28-37.12C25.6 243.2 243.2 25.6 512 25.6z" fill="#2B3B48" /></svg>