<?xml version="1.0" standalone="no"?><!DOCTYPE svg PUBLIC "-//W3C//DTD SVG 1.1//EN" "http://www.w3.org/Graphics/SVG/1.1/DTD/svg11.dtd"><svg class="icon" width="200px" height="200.00px" viewBox="0 0 1024 1024" version="1.1" xmlns="http://www.w3.org/2000/svg"><path d="M297.31055154 245.70024494h383.18885176v523.40863361H297.31055154z" fill="#FFFFFF" /><path d="M680.26373934 774.76480256H297.31055154c-3.06362596 0-5.65592402-2.59229804-5.65592401-5.65592401V245.70024494c0-3.06362596 2.59229804-5.65592402 5.65592401-5.65592401h383.18885176c3.06362596 0 5.65592402 2.59229804 5.65592401 5.65592401v523.40863361c-0.23566397 3.29928854-2.59229804 5.65592402-5.89158797 5.65592401z m-377.29726379-11.31184803H674.60781532V251.35616894H302.96647555v512.09678559z" fill="#222222" /><path d="M336.19502912 283.40640409h304.94856867v448.23197788H336.19502912z" fill="#FFF4C7" /><path d="M680.26373934 251.35616894c-3.06362596 0-5.65592402-2.59229804-5.65592402-5.655924v-38.64881501l-49.01800856 23.09502397c-1.88530755 0.94265446-3.77061647 0.7069905-5.42026004-0.47132793l-37.70616054-24.98033013-49.48933509 25.45165806c-1.88530755 0.94265446-4.00627904 0.7069905-5.65592402-0.23566396l-40.06279462-25.2159941-47.13269963 25.2159941c-1.64964496 0.94265446-3.77061647 0.94265446-5.65592402-0.23566397l-42.41943008-25.21599408-44.77606555 25.21599408c-1.64964496 0.94265446-3.77061647 0.94265446-5.655924 0l-39.12014154-22.15236811V245.70024494c0 3.06362596-2.59229804 5.65592402-5.655924 5.655924s-5.65592402-2.59229804-5.65592402-5.655924v-47.60402756c0-2.1209715 1.17831705-3.77061647 2.82796199-4.94893351 1.64964496-0.94265446 3.77061647-0.94265446 5.65592402 0l44.77606555 25.21599409 44.77606554-25.21599409c1.64964496-0.94265446 4.00627904-0.94265446 5.65592403 0l42.41943008 25.21599409 47.13269962-25.45165805c1.88530755-0.94265446 4.00627904-0.94265446 5.65592401 0.23566396l40.06279463 25.21599409 49.48933508-25.45165805c1.88530755-0.94265446 4.00627904-0.7069905 5.65592402 0.23566396l37.70616055 24.9803315 54.20260464-25.45165806c1.64964496-0.7069905 3.77061647-0.7069905 5.42026142 0.2356626s2.59229804 2.82796201 2.59229806 4.71327093V245.70024494c0.7069905 3.06362596-1.64964496 5.65592402-4.94893351 5.655924zM582.69905013 822.36883011c-0.94265446 0-1.64964496-0.23566397-2.59229803-0.7069905l-49.4893351-25.45165804-40.06279601 25.21599408c-1.64964496 1.17831705-3.77061647 1.17831705-5.65592401 0.23566396l-47.13269963-25.45165804-42.41943008 25.21599408c-1.64964496 0.94265446-4.00627904 0.94265446-5.65592402 0l-44.77606554-25.21599408-44.77606417 25.21599408c-1.64964496 0.94265446-4.00627904 0.94265446-5.65592401 0s-2.82796201-2.82796201-2.827962-4.94893351V768.87321598c0-3.06362596 2.59229804-5.65592402 5.65592401-5.65592402s5.65592402 2.59229804 5.65592401 5.65592402v37.94182311l39.12014016-22.1523695c1.64964496-0.94265446 3.77061647-0.94265446 5.65592401 0l44.77606555 25.21599546 42.41943008-25.21599546c1.64964496-0.94265446 3.77061647-0.94265446 5.65592401-0.2356626l47.13269965 25.21599409 40.06279599-25.21599409c1.64964496-0.94265446 3.77061647-1.17831705 5.65592401-0.23566395l49.48933508 25.45165804 37.70615917-24.98033149c1.64964496-1.17831705 3.77061647-1.17831705 5.42026143-0.47132655l49.01800717 23.09502259v-38.64881362c0-3.06362596 2.59229804-5.65592402 5.65592402-5.65592401s5.65592402 2.59229804 5.655924 5.65592401v47.60402754c0 1.88530755-0.94265446 3.77061647-2.59229804 4.71326956-1.64964496 0.94265446-3.77061647 1.17831705-5.42026005 0.23566397l-54.20260603-25.45165805-37.70615916 24.98033011c-1.41398101 1.41398101-2.59229804 1.64964496-3.77061647 1.64964497z" fill="#222222" /><path d="M297.31055154 450.25616242l205.0272454-204.55591748h-56.79490408l-148.23234132 147.52535083z" fill="#ee4254" /><path d="M297.31055154 455.91208643c-0.7069905 0-1.41398101-0.23566397-2.1209715-0.47132655-2.1209715-0.94265446-3.5349525-2.82796201-3.53495251-5.18459746v-57.03056665c0-1.41398101 0.7069905-2.82796201 1.64964356-4.00627906l148.23234273-147.52535221c0.94265446-0.94265446 2.59229804-1.64964496 4.00627904-1.64964357h56.79490408c2.35663547 0 4.24194301 1.41398101 5.18459609 3.53495249s0.47132654 4.47760697-1.17831705 6.12725056l-205.0272454 204.55591887c-1.17831705 1.17831705-2.59229804 1.64964496-4.00627904 1.64964358z m5.65592401-60.32985521v41.24111168l185.70283791-185.46717396h-40.76978512l-144.93305279 144.22606228z" fill="#ee4254" /><path d="M551.82713204 769.10887855l128.4366073-128.4366073v-57.03056664l-187.82380942 185.46717394z" fill="#ee4254" /><path d="M551.82713204 774.76480256h-59.38720212c-2.35663547 0-4.24194301-1.41398101-5.18459747-3.53495251-0.94265446-2.1209715-0.47132654-4.47760697 1.17831704-6.12725055l188.05947338-185.70283791c1.64964496-1.64964496 4.00627904-2.1209715 6.12725192-1.17831841 2.1209715 0.94265446 3.5349525 2.82796201 3.53495252 5.18459746v57.03056667c0 1.41398101-0.7069905 2.82796201-1.64964497 4.0062804l-128.43660729 128.43660731c-1.17831705 1.41398101-2.82796201 1.88530755-4.24194301 1.88530754z m-45.71872001-11.31184803h43.36208455l125.13731874-125.13731874v-41.24111165l-168.49940329 166.37843039z" fill="#ee4254" /><path d="M299.19585908 726.45378589l381.06788026-380.36088976v-57.26623062L299.19585908 669.18755527z" fill="#FF9060" /><path d="M299.19585908 732.10970989c-0.7069905 0-1.41398101-0.23566397-2.12097151-0.47132792-2.1209715-0.94265446-3.5349525-2.82796201-3.53495251-5.18459608v-57.03056804c0-1.41398101 0.7069905-2.82796201 1.64964498-4.00627904l381.06788024-380.36088976c1.64964496-1.64964496 4.00627904-2.1209715 6.12725055-1.17831704 2.1209715 0.94265446 3.5349525 2.82796201 3.53495251 5.1845961v57.03056802c0 1.41398101-0.7069905 2.82796201-1.64964496 4.00627905L303.20213813 730.46006494c-0.94265446 0.94265446-2.59229804 1.64964496-4.00627905 1.64964495z m5.65592401-60.56552055v41.24111305L674.60781532 343.73626066v-41.24111303L304.85178309 671.54418934z" fill="#ee4254" /><path d="M380.49976674 619.22689226c-15.08246449 0-29.22227452 3.29928854-41.94810354 8.95521393 4.00627904 7.30556897 6.36291451 15.55379103 6.36291451 24.27333962 0 27.57262956-22.38803207 49.96066164-49.96066164 49.96066303-4.9489335 0-9.89786702-0.7069905-14.37547399-2.12097151-1.41398101 6.83424105-2.1209715 13.90414608-2.1209715 21.20971504 0 56.55924012 45.71871863 102.27795873 102.27796012 102.27795874s102.27795873-45.71871863 102.27795875-102.27795874c-0.23566397-56.32357615-45.9543826-102.27795873-102.51362271-102.27796011z" fill="#FFFFFF" /><path d="M380.49976674 829.43873514c-59.62286608 0-107.93388275-48.54668063-107.93388274-107.93388277 0-7.54123156 0.7069905-15.08246449 2.35663406-22.38803346 0.23566397-1.64964496 1.17831705-2.82796201 2.59229943-3.77061509s3.06362596-0.94265446 4.47760559-0.47132793c4.24194301 1.17831705 8.48388603 1.88530755 12.72582903 1.88530893 24.50900359 0 44.30473763-19.79573404 44.304739-44.30473901 0-7.54123156-1.88530755-14.84680053-5.655924-21.44537762-0.7069905-1.41398101-0.94265446-3.06362596-0.47132792-4.47760696 0.47132654-1.41398101 1.64964496-2.82796201 3.06362596-3.29928855 13.90414608-6.36291451 28.98661055-9.42654048 44.30473763-9.42654048 59.62286608 0 107.93388275 48.54668063 107.93388414 107.93388275 0.23566397 59.38720211-48.07535409 107.69822018-107.69822018 107.69822019z m-95.67938164-122.07369279c-0.7069905 4.71326955-0.94265446 9.42654048-0.94265309 14.3754726 0 53.25995157 43.36208453 96.62203474 96.62203473 96.62203612s96.62203474-43.36208453 96.62203472-96.62203612-43.36208453-96.62203474-96.62203472-96.62203474c-11.78317456 0-23.33068654 2.1209715-34.40687061 6.36291452 2.82796201 6.83424105 4.24194301 14.13981003 4.24194301 21.44537901 0 30.63625552-24.98033151 55.61658565-55.61658703 55.61658565-3.06362596-0.23566397-6.59857847-0.7069905-9.89786701-1.17831704z" fill="#222222" /><path d="M385.44870025 649.15615727c-2.35663547 0-4.47760697 0.23566397-6.83424105 0.23566397 0 1.41398101 0.23566397 2.82796201 0.23566257 4.24194301 0 37.94182311-28.7509466 69.04940517-65.75011663 73.05568421 2.59229804 37.70616053 33.93554407 67.39976159 72.34869511 67.3997616 40.06279462 0 72.3486951-32.52156306 72.3486951-72.34869511 0-40.06279462-32.52156306-72.58435769-72.3486951-72.58435768z" fill="#FFF4C7" /><path d="M323.46920009 619.22689226c-15.08246449 0-29.22227452 3.29928854-41.94810356 8.95521393 4.00627904 7.30556897 6.36291451 15.55379103 6.36291452 24.27333962 0 27.57262956-22.38803207 49.96066164-49.96066162 49.96066303-4.9489335 0-9.89786702-0.7069905-14.375474-2.12097151-1.41398101 6.83424105-2.1209715 13.90414608-2.1209715 21.20971504 0 56.55924012 45.71871863 102.27795873 102.27795874 102.27795874s102.27795873-45.71871863 102.27796011-102.27795874c-0.23566397-56.32357615-45.9543826-102.27795873-102.51362269-102.27796011z" fill="#FFFFFF" /><path d="M323.46920009 829.43873514c-59.62286608 0-107.93388275-48.54668063-107.93388413-107.93388277 0-7.54123156 0.7069905-15.08246449 2.35663545-22.38803346 0.23566397-1.64964496 1.17831705-2.82796201 2.59229806-3.77061509s3.06362596-0.94265446 4.47760697-0.47132793c4.24194301 1.17831705 8.48388603 1.88530755 12.72582902 1.88530893 24.50900359 0 44.30473763-19.79573404 44.30473762-44.30473901 0-7.54123156-1.88530755-14.84680053-5.65592401-21.44537762-0.7069905-1.41398101-0.94265446-3.06362596-0.47132654-4.47760696 0.47132654-1.41398101 1.64964496-2.82796201 3.06362598-3.29928855 13.90414608-6.36291451 28.98661055-9.42654048 44.30473762-9.42654048 59.62286608 0 107.93388275 48.54668063 107.93388275 107.93388275 0.23566397 59.38720211-48.31101805 107.69822018-107.69821879 107.69822019z m-95.67938166-122.07369279c-0.7069905 4.71326955-0.94265446 9.42654048-0.94265445 14.3754726 0 53.25995157 43.36208453 96.62203474 96.62203611 96.62203612s96.62203474-43.36208453 96.62203473-96.62203612-43.36208453-96.62203474-96.62203473-96.62203474c-11.78317456 0-23.33068654 2.1209715-34.40687198 6.36291452 2.82796201 6.83424105 4.24194301 14.13981003 4.24194298 21.44537901 0 30.63625552-24.98033151 55.61658565-55.61658563 55.61658565-3.29928854-0.23566397-6.59857847-0.7069905-9.89786703-1.17831704z" fill="#222222" /><path d="M323.23353613 649.15615727c-2.35663547 0-4.47760697 0.23566397-6.83424105 0.23566397 0 1.41398101 0.23566397 2.82796201 0.23566257 4.24194301 0 37.94182311-28.7509466 69.04940517-65.75011663 73.05568421 2.59229804 37.70616053 33.93554407 67.39976159 72.34869511 67.3997616 40.06279462 0 72.3486951-32.52156306 72.34869509-72.34869511 0-40.06279462-32.2858991-72.58435769-72.34869509-72.58435768z" fill="#FFF4C7" /><path d="M845.22819013 691.3399234h-80.12559063c-26.15864854 0-47.60402755-21.44537901-47.60402755-47.60402618v-170.14904826c0-26.15864854 21.44537901-47.60402755 47.60402755-47.60402618h61.27250966c1.88530755 0 3.77061647 0.94265446 4.71327093 2.59229806 0.94265446 1.64964496 1.17831705 3.5349525 0.47132654 5.42026005-0.47132654 1.17831705-0.7069905 2.35663547-0.7069905 3.53495251 0 4.47760697 3.5349525 8.24822206 8.01255948 8.483886 2.59229804 0.23566397 4.71326955 2.1209715 5.18459609 4.71327095 1.41398101 7.77689552 8.24822206 13.43281952 16.02511895 13.43281952 2.59229804 0 4.9489335-0.47132654 7.06990501-1.64964496 1.41398101-0.7069905 3.29928854-0.7069905 4.94893351 0 1.64964496 0.7069905 2.59229804 2.1209715 3.06362459 3.77061646 1.17831705 4.24194301 4.47760697 7.30556897 8.71954998 8.24822205 0.94265446 0.23566397 1.88530755 0.23566397 2.82796201 0.23566397 1.64964496-0.23566397 3.06362596 0.47132654 4.241943 1.413981 1.17831705 1.17831705 1.88530755 2.59229804 1.88530754 4.241943V643.9715598c0.23566397 25.92298459-21.20971504 47.36836359-47.60402616 47.3683636z m-80.12559063-254.04525258c-20.03139801 0-36.29217952 16.26078154-36.29217954 36.29217814v170.14904826c0 20.03139801 16.26078154 36.29217952 36.29217954 36.29217815h80.12559063c20.03139801 0 36.29217952-16.26078154 36.29217814-36.29217815v-158.36587231c-6.36291451-1.17831705-11.78317456-5.18459746-15.08246311-10.60485752-2.1209715 0.47132654-4.24194301 0.7069905-6.59857847 0.7069905-12.01883853 0-22.62369604-7.77689552-26.15864856-18.85308095-8.24822206-2.35663547-14.37547399-10.13353098-14.37547397-19.08874354v-0.23566258h-54.20260466z" fill="#222222" /><path d="M856.06871022 501.86646902c-4.00627904 1.41398101-8.24822206 2.1209715-12.72582904 2.12097149-17.91042649 0-33.46421754-11.78317456-39.35580409-28.04395608-8.01255949-3.5349525-13.43281952-10.13353098-16.49644551-17.67476254H773.58648551c-18.38175303 0-33.22855357 14.84680053-33.22855355 33.22855356v134.09253131c0 18.38175303 14.84680053 33.22855357 33.22855355 33.22855357h63.1578186c18.38175303 0 33.22855357-14.84680053 33.22855356-33.22855357v-112.41148971c-6.36291451-1.88530755-11.07618405-6.12725056-13.90414745-11.31184803z" fill="#ee4254" /><path d="M766.04525396 646.32819526c-3.06362596 0-5.65592402-2.59229804-5.65592401-5.65592401V497.86018997c0-3.06362596 2.59229804-5.65592402 5.65592401-5.65592401s5.65592402 2.59229804 5.65592401 5.65592401v142.81208128c0 3.06362596-2.59229804 5.65592402-5.65592401 5.65592401zM806.10804859 646.32819526c-3.06362596 0-5.65592402-2.59229804-5.65592402-5.65592401v-115.23945173c0-3.06362596 2.59229804-5.65592402 5.65592402-5.655924s5.65592402 2.59229804 5.655924 5.655924v115.23945173c0 3.06362596-2.59229804 5.65592402-5.655924 5.65592401zM846.1708432 646.32819526c-3.06362596 0-5.65592402-2.59229804-5.65592401-5.65592401v-97.56468918c0-3.06362596 2.59229804-5.65592402 5.65592401-5.65592402s5.65592402 2.59229804 5.65592401 5.65592402v97.56468918c0 3.06362596-2.59229804 5.65592402-5.65592401 5.65592401zM808.93601058 822.36883011h-7.06990501c-9.66220306 0-17.43909857-7.77689552-17.43909858-17.43909857v-119.0100682c0-3.06362596 2.59229804-5.65592402 5.65592402-5.655924h30.63625413c3.06362596 0 5.65592402 2.59229804 5.65592402 5.655924v119.0100682c0 9.66220306-7.77689552 17.43909857-17.43909858 17.43909857z m-13.43281952-130.79324275v113.35414418c0 3.5349525 2.82796201 6.36291451 6.36291451 6.36291451h7.06990501c3.5349525 0 6.36291451-2.82796201 6.36291452-6.36291451v-113.35414418h-19.79573404zM885.29098474 503.98744051c-2.1209715 0-4.47760697-0.23566397-6.12725055-0.47132654-8.71954998-1.64964496-16.26078154-7.30556897-20.26706197-15.08246448-3.29928854 0.94265446-6.59857847 1.41398101-9.89786701 1.41398101-16.02511757 0-29.92926501-10.60485751-34.40687061-25.68732063-11.07618405-2.59229804-19.3244075-12.72582902-19.3244075-24.50900497 0-3.5349525 0.7069905-7.06990501 2.1209715-10.36919356 0.94265446-2.1209715 2.82796201-3.29928854 5.18459747-3.29928856h24.27334101c1.88530755 0 3.77061647 0.94265446 4.71326955 2.59229806 0.94265446 1.64964496 1.17831705 3.5349525 0.47132654 5.42026005-0.47132654 1.17831705-0.7069905 2.35663547-0.70699048 3.53495251 0 4.47760697 3.5349525 8.24822206 8.01255945 8.483886 2.59229804 0.23566397 4.71326955 2.1209715 5.18459749 4.71327095 1.41398101 7.77689552 8.24822206 13.43281952 16.02511755 13.43281952 2.59229804 0 4.9489335-0.47132654 7.06990503-1.64964496 1.41398101-0.7069905 3.29928854-0.7069905 4.9489335 0 1.64964496 0.7069905 2.59229804 2.1209715 3.06362598 3.77061646 1.17831705 4.24194301 4.47760697 7.30556897 8.71954859 8.24822205 0.94265446 0.23566397 1.88530755 0.23566397 2.82796201 0.23566397 1.64964496-0.23566397 3.06362596 0.47132654 4.241943 1.413981 1.17831705 1.17831705 1.88530755 2.59229804 1.88530892 4.241943v18.14608909c0 3.06362596-2.35663547 5.42026005-5.18459747 5.655924-1.17831705-0.23566397-1.88530755-0.23566397-2.827962-0.23566397z m-23.33068655-28.51528262c0.7069905 0 1.64964496 0.23566397 2.35663547 0.47132654 1.64964496 0.7069905 2.59229804 2.1209715 3.06362458 3.77061647 1.64964496 6.59857847 7.06990501 11.54751198 13.66848349 12.72582902h0.70699049v-7.06990501c-6.36291451-1.17831705-11.78317456-5.18459746-15.08246449-10.60485752-1.64964496 0.23566397-3.29928854 0.47132654-4.71326954 0.7069905-0.23566397 0 0 0 0 0z m-55.61658564-38.17748707c-0.23566397 0.7069905-0.23566397 1.64964496-0.23566396 2.35663408 0 7.30556897 5.65592402 13.43281952 12.96149298 13.90414744 2.59229804 0.23566397 4.71326955 2.1209715 5.18459608 4.71326955 2.1209715 11.78317456 12.2545025 20.26706059 24.27334102 20.26706057 3.77061647 0 7.30556897-0.94265446 10.84052148-2.59229803 0.7069905-0.23566397 1.41398101-0.47132654 2.1209715-0.47132654h-1.17831842c-12.01883853 0-22.62369604-7.77689552-26.15864856-18.85308095-8.24822206-2.35663547-14.37547399-10.13353098-14.3754726-19.08874354v-0.23566258h-13.43281952z" fill="#222222" /><path d="M126.69017674 573.03684708m-58.44454765 0a58.44454766 58.44454766 0 1 0 116.8890953 0 58.44454766 58.44454766 0 1 0-116.8890953 0Z" fill="#FFDE52" /><path d="M126.69017674 637.37298271c-35.34952507 0-64.10047166-28.7509466-64.10047166-64.10047306s28.7509466-64.10047166 64.10047166-64.10047166 64.10047166 28.7509466 64.10047165 64.10047166-28.7509466 64.10047166-64.10047165 64.10047306z m0-117.12476065c-29.22227452 0-52.78862365 23.80201308-52.78862364 52.78862502 0 29.22227452 23.80201308 52.78862365 52.78862364 52.78862365s52.78862365-23.80201308 52.78862363-52.78862365c0-28.98661055-23.56635051-52.78862365-52.78862363-52.78862502z" fill="#222222" /><path d="M190.60211807 559.02429535v28.27962004h-127.96528076v-28.27962004z" fill="#FFFFFF" /><path d="M190.55498582 592.83258112h-127.96528074c-3.06362596 0-5.65592402-2.59229804-5.65592402-5.65592402v-28.27962003c0-3.06362596 2.59229804-5.65592402 5.65592402-5.65592402h127.96528074c3.06362596 0 5.65592402 2.59229804 5.65592403 5.65592402v28.27962003c0 3.06362596-2.59229804 5.65592402-5.65592403 5.65592402z m-122.30935673-11.31184801h116.65343272v-16.96777204h-116.65343272v16.96777204z" fill="#222222" /><path d="M127.16150327 831.55970663c-3.06362596 0-5.65592402-2.59229804-5.65592402-5.65592401v-192.53708035c0-3.06362596 2.59229804-5.65592402 5.65592402-5.655924s5.65592402 2.59229804 5.65592402 5.655924v192.53708035c0 3.06362596-2.59229804 5.65592402-5.65592402 5.65592401z" fill="#222222" /><path d="M263.84633401 619.22689226c-15.08246449 0-29.22227452 3.29928854-41.94810355 8.95521393 4.00627904 7.30556897 6.36291451 15.55379103 6.36291451 24.27333962 0 27.57262956-22.38803207 49.96066164-49.96066163 49.96066303-4.9489335 0-9.89786702-0.7069905-14.37547399-2.12097151-1.41398101 6.83424105-2.1209715 13.90414608-2.1209715 21.20971504 0 56.55924012 45.71871863 102.27795873 102.27796012 102.27795874s102.27795873-45.71871863 102.27795873-102.27795874c0-56.32357615-45.9543826-102.27795873-102.51362269-102.27796011z" fill="#ee4254" /><path d="M263.84633401 829.43873514c-59.62286608 0-107.93388275-48.54668063-107.93388276-107.93388277 0-7.54123156 0.7069905-15.08246449 2.35663409-22.38803346 0.23566397-1.64964496 1.17831705-2.82796201 2.59229942-3.77061509s3.06362596-0.94265446 4.4776056-0.47132793c4.24194301 1.17831705 8.48388603 1.88530755 12.72582902 1.88530893 24.50900359 0 44.30473763-19.79573404 44.30473901-44.30473901 0-7.54123156-1.88530755-14.84680053-5.65592402-21.44537762-0.7069905-1.41398101-0.94265446-3.06362596-0.47132792-4.47760696 0.47132654-1.41398101 1.64964496-2.82796201 3.06362598-3.29928855 13.90414608-6.36291451 28.98661055-9.42654048 44.30473762-9.42654048 59.62286608 0 107.93388275 48.54668063 107.93388414 107.93388275 0.47132654 59.38720211-48.07535409 107.69822018-107.69822018 107.69822019z m-95.44371769-122.07369279c-0.7069905 4.71326955-0.94265446 9.42654048-0.94265446 14.3754726 0 53.25995157 43.36208453 96.62203474 96.62203611 96.62203612s96.62203474-43.36208453 96.62203474-96.62203612-43.36208453-96.62203474-96.62203474-96.62203474c-11.78317456 0-23.33068654 2.1209715-34.406872 6.36291452 2.82796201 6.83424105 4.24194301 14.13981003 4.24194302 21.44537901 0 30.63625552-24.98033151 55.61658565-55.61658565 55.61658565-3.29928854-0.23566397-6.59857847-0.7069905-9.89786702-1.17831704z" fill="#222222" /><path d="M263.84633401 649.15615727c-2.35663547 0-4.47760697 0.23566397-6.83424105 0.23566397 0 1.41398101 0.23566397 2.82796201 0.23566258 4.24194301 0 37.94182311-28.7509466 69.04940517-65.75011664 73.05568421 2.59229804 37.70616053 33.93554407 67.39976159 72.34869511 67.3997616 40.06279462 0 72.3486951-32.52156306 72.34869511-72.34869511 0.23566397-40.06279462-32.2858991-72.58435769-72.34869511-72.58435768z" fill="#FFF4C7" /><path d="M208.46541094 723.86148646c-14.84680053 0-15.08246449 23.33068654 0 23.33068655s15.08246449-23.33068654 0-23.33068655zM293.77559903 647.74217627c-12.2545025 0-12.2545025 19.08874354 0 19.08874354s12.2545025-19.08874354 0-19.08874354zM284.34905856 771.46551401c-16.73210807 0-16.96777203 26.15864854 0 26.15864856 16.73210807 0 16.73210807-26.15864854 0-26.15864856zM333.13140315 727.63210293c-11.54751198 0-11.54751198 17.91042649 0 17.91042649 11.54751198-0.23566397 11.54751198-17.91042649 0-17.91042649zM264.78898847 701.00212783c-8.48388603 0-8.48388603 13.19715556 0 13.19715556s8.48388603-13.19715556 0-13.19715556z" fill="#B4B4B4" /><path d="M206.10877685 721.50485237c-14.84680053 0-15.08246449 23.33068654 0 23.33068655s15.08246449-23.33068654 0-23.33068655zM291.41896357 645.3855408c-12.2545025 0-12.2545025 19.08874354 0 19.08874354s12.2545025-19.08874354 0-19.08874354zM281.7567605 769.10887855c-16.73210807 0-16.96777203 26.15864854 0 26.15864855s16.96777203-26.15864854 0-26.15864855zM330.77476768 725.27546746c-11.54751198 0-11.54751198 17.91042649 0 17.91042649 11.31184801-0.23566397 11.54751198-17.91042649 0-17.91042649zM262.43235299 698.64549237c-8.48388603 0-8.48388603 13.19715556 0 13.19715557s8.48388603-13.19715556 0-13.19715557z" fill="#ee4254" /><path d="M380.0284402 763.92428246c-6.12725056 0-6.12725056 9.42654048 0 9.4265391s6.12725056-9.42654048 0-9.4265391z" fill="#222222" /><path d="M380.0284402 666.83091981c-10.60485751 0-10.84052148 16.73210807 0 16.73210806 10.60485751 0 10.60485751-16.73210807 0-16.73210806z" fill="#222222" /><path d="M438.94431439 764.39560899c-10.60485751 0-10.84052148 16.73210807 0 16.73210809 10.60485751 0 10.60485751-16.73210807 0-16.73210809z" fill="#222222" /><path d="M447.19253782 688.74762534c-6.36291451 0-6.36291451 9.66220306 0 9.66220307s6.36291451-9.66220306 0-9.66220307z" fill="#222222" /><path d="M27.24018 434.70237138l24.98033013-23.33068653 30.16492897 58.68021161z" fill="#ee4254" /><path d="M82.3854391 475.70782048c-0.94265446 0-2.1209715-0.23566397-3.06362596-0.94265309l-55.1452591-35.34952508c-1.41398101-0.94265446-2.35663547-2.59229804-2.59229805-4.241943-0.23566397-1.64964496 0.47132654-3.5349525 1.88530755-4.71327092l24.9803315-23.33068656c1.41398101-1.17831705 3.06362596-1.64964496 4.71326956-1.413981 1.64964496 0.23566397 3.29928854 1.41398101 4.00627904 3.06362595l29.92926502 58.68021163c1.17831705 2.35663547 0.7069905 4.9489335-1.17831704 6.83424106-0.94265446 0.94265446-2.1209715 1.41398101-3.53495252 1.41398101z m-45.95438258-41.94810219l31.34324465 20.2670606-17.20343462-33.46421754-14.13981003 13.19715694z" fill="#ee4254" /><path d="M107.60143321 397.70320274l34.17120802-0.70699051-16.4964455 63.86480772z" fill="#FF9060" /><path d="M125.27619573 466.51694395c-2.59229804 0-4.71326955-1.64964496-5.42026004-4.00627904l-17.67476255-63.15781858c-0.47132654-1.64964496-0.23566397-3.5349525 0.94265308-4.94893352 0.94265446-1.41398101 2.59229804-2.35663547 4.47760699-2.35663409l34.17120802-0.70699051c1.88530755 0 3.5349525 0.7069905 4.47760559 2.12097152s1.41398101 3.29928854 0.94265446 4.94893351l-16.49644549 63.86480771c-0.7069905 2.35663547-2.82796201 4.24194301-5.42026006 4.241943z m-10.36919355-63.39348116l10.13352961 36.05651557 9.42654046-36.29217953-19.56007007 0.23566396z" fill="#ee4254" /><path d="M201.15984334 406.6584153l24.98033013 23.33068653-56.5592401 33.93554408z" fill="#ee4254" /><path d="M169.58093337 469.58056992c-1.41398101 0-2.82796201-0.47132654-4.00627906-1.64964497-1.88530755-1.88530755-2.35663547-4.47760697-0.94265446-6.83424106L196.21090985 403.59478933c0.94265446-1.41398101 2.35663547-2.59229804 4.00627904-2.82796201 1.64964496-0.23566397 3.5349525 0.23566397 4.71326954 1.413981l24.98033151 23.56635052c1.17831705 1.17831705 1.88530755 3.06362596 1.64964496 4.71326955s-1.17831705 3.29928854-2.59229942 4.24194299l-56.55924012 33.93554409c-0.94265446 0.7069905-1.88530755 0.94265446-2.82796199 0.94265445z m32.99289098-53.96694207L184.42773389 448.37085488l32.28590048-19.3244075-14.13981002-13.43281953z" fill="#ee4254" /><path d="M773.11515898 745.54252942h169.91338291c15.55379103 0 28.27962006 12.72582902 28.27962006 28.27962005v16.96777203c0 15.55379103-12.72582902 28.27962006-28.27962006 28.27962007h-169.91338291c-15.55379103 0-28.27962006-12.72582902-28.27962006-28.27962007v-16.96777203c0-15.55379103 12.72582902-28.27962006 28.27962006-28.27962005z" fill="#FFDE52" /><path d="M943.02854189 824.72546558h-169.91338291c-18.617417 0-33.93554407-15.31812707-33.93554408-33.93554408v-16.96777203c0-18.617417 15.31812707-33.93554407 33.93554408-33.93554406h169.91338291c18.617417 0 33.93554407 15.31812707 33.93554406 33.93554406v16.96777203c0 18.85307957-15.31812707 33.93554407-33.93554406 33.93554408z m-169.91338291-73.52701215c-12.49016507 0-22.62369604 10.13353098-22.62369605 22.62369604v16.96777203c0 12.49016507 10.13353098 22.62369604 22.62369605 22.62369606h169.91338291c12.49016507 0 22.62369604-10.13353098 22.62369605-22.62369606v-16.96777203c0-12.49016507-10.13353098-22.62369604-22.62369605-22.62369604h-169.91338291z" fill="#222222" /><path d="M742.00757692 788.43328605V776.17878356l-21.20971505-16.4964441V804.92973154z" fill="#FFFFFF" /><path d="M720.79786187 810.58565556c-0.94265446 0-1.64964496-0.23566397-2.59229943-0.47132793-1.88530755-0.94265446-3.06362596-2.82796201-3.06362457-5.18459609v-45.24739208c0-2.1209715 1.17831705-4.24194301 3.06362457-5.18459749 1.88530755-0.94265446 4.24194301-0.7069905 5.89158798 0.70699051l21.20971504 16.49644549c1.41398101 1.17831705 2.1209715 2.82796201 2.1209715 4.47760559v12.25450249c0 1.64964496-0.7069905 3.29928854-2.1209715 4.47760696l-21.20971504 16.49644411c-0.94265446 0.94265446-2.1209715 1.17831705-3.29928855 1.17831844zM726.45378589 771.22985005v22.15236951l9.89786702-7.77689552v-6.59857847L726.45378589 771.22985005z m15.55379103 17.203436z" fill="#222222" /><path d="M975.55010496 785.60532404V773.35082156l21.20971504-16.49644411V802.10176954z" fill="#FFFFFF" /><path d="M996.75982 807.75769355c-1.17831705 0-2.35663547-0.47132654-3.53495251-1.17831842l-21.20971503-16.49644412c-1.41398101-1.17831705-2.1209715-2.82796201-2.12097152-4.47760697v-12.25450248c0-1.64964496 0.7069905-3.29928854 2.12097152-4.47760558l21.20971503-16.49644552c1.64964496-1.41398101 4.00627904-1.64964496 5.89158797-0.70699049 1.88530755 0.94265446 3.06362596 2.82796201 3.06362597 5.18459748v45.24739209c0 2.1209715-1.17831705 4.24194301-3.06362597 5.18459609-0.7069905 0.23566397-1.41398101 0.47132654-2.35663546 0.47132792z m-15.55379104-24.98033151l9.89786704 7.77689551v-22.1523695l-9.89786704 7.77689551v6.59857848z" fill="#222222" /></svg>