<?xml version="1.0" standalone="no"?><!DOCTYPE svg PUBLIC "-//W3C//DTD SVG 1.1//EN" "http://www.w3.org/Graphics/SVG/1.1/DTD/svg11.dtd"><svg xmlns:xlink="http://www.w3.org/1999/xlink" t="1593744062903" class="icon" viewBox="0 0 1024 1024" version="1.1" xmlns="http://www.w3.org/2000/svg" p-id="10261" width="200" height="200"><defs><style type="text/css"></style></defs><path d="M866.7 475.4h-83.9V201.7c0-36.2-23.1-61.1-44.2-61.1H226.4c-21.1 0-44.2 24.8-44.2 61.1v620.5c0 36.2 23.1 61.1 44.2 61.1h191.4v76.8H226.4c-70.7 0-128-61.7-128-137.9V201.7c0-76.2 57.3-137.9 128-137.9h512.2c70.7 0 128 61.7 128 137.9v273.7z" p-id="10262" ></path><path d="M780.7 492.8L501.1 779.2 491 927.4l154.9-3.4 279.7-286.3-144.9-144.9zM618.4 860.6l-58.8 1.3 3.7-54.9 217.9-223.1 54.4 54.3-217.2 222.4zM328.9 255.9h307.3c25.6 0 38.4 12.8 38.4 38.4 0 25.6-12.8 38.4-38.4 38.4H328.9c-25.6 0-38.4-12.8-38.4-38.4 0-25.6 12.8-38.4 38.4-38.4zM328.9 448h179.3c25.6 0 38.4 12.8 38.4 38.4 0 25.6-12.8 38.4-38.4 38.4H328.9c-25.6 0-38.4-12.8-38.4-38.4 0-25.6 12.8-38.4 38.4-38.4zM328.9 640.1h51.2c25.6 0 38.4 12.8 38.4 38.4 0 25.6-12.8 38.4-38.4 38.4h-51.2c-25.6 0-38.4-12.8-38.4-38.4 0-25.6 12.8-38.4 38.4-38.4z" p-id="10263" ></path></svg>