<?xml version="1.0" standalone="no"?><!DOCTYPE svg PUBLIC "-//W3C//DTD SVG 1.1//EN" "http://www.w3.org/Graphics/SVG/1.1/DTD/svg11.dtd"><svg class="icon" width="200px" height="200.00px" viewBox="0 0 1024 1024" version="1.1" xmlns="http://www.w3.org/2000/svg"><path d="M408.576 822.272v-527.36M467.456 640.512V437.248M467.456 758.784v-46.08" fill="#BCE6FA" /><path d="M408.576 294.912a263.68 80.896 0 1 0 527.36 0 263.68 80.896 0 1 0-527.36 0Z" fill="#BCE6FA" /><path d="M581.12 294.912a91.136 27.648 0 1 0 182.272 0 91.136 27.648 0 1 0-182.272 0Z" fill="#BCE6FA" /><path d="M936.448 822.272c0 44.544-118.272 80.896-263.68 80.896s-263.68-36.352-263.68-80.896h527.36v-527.36M408.576 768c0 14.336-11.776 26.112-26.112 26.112H230.4c-18.432 0-31.232-18.944-24.064-35.84l89.6-218.112c2.56-6.144 2.56-13.312 0-19.968L206.336 302.592c-7.168-16.896 5.632-35.84 24.064-35.84h201.216l-23.552 263.68V768z" fill="#BCE6FA" /><path d="M406.528 294.912h529.92v527.36H406.528z" fill="#BCE6FA" /><path d="M323.584 839.68c-11.264 0-20.48-9.216-20.48-20.48V204.8c0-11.264 9.216-20.48 20.48-20.48s20.48 9.216 20.48 20.48v614.4c0 11.776-9.216 20.48-20.48 20.48zM391.68 628.224c-11.264 0-20.48-9.216-20.48-20.48V370.176c0-11.264 9.216-20.48 20.48-20.48s20.48 9.216 20.48 20.48v237.056c0 11.776-9.216 20.992-20.48 20.992zM391.68 765.44c-11.264 0-20.48-9.216-20.48-20.48v-53.248c0-11.264 9.216-20.48 20.48-20.48s20.48 9.216 20.48 20.48v53.248c0 11.264-9.216 20.48-20.48 20.48zM938.496 839.68c-11.264 0-20.48-9.216-20.48-20.48V204.8c0-11.264 9.216-20.48 20.48-20.48s20.48 9.216 20.48 20.48v614.4c0 11.776-9.216 20.48-20.48 20.48z"  /><path d="M630.784 318.976c-162.816 0-327.68-39.424-327.68-114.688s164.864-114.688 327.68-114.688 327.68 39.424 327.68 114.688-164.352 114.688-327.68 114.688z m0-187.904c-185.856 0-286.72 48.64-286.72 73.728s101.376 73.728 286.72 73.728 286.72-48.64 286.72-73.728-100.864-73.728-286.72-73.728z"  /><path d="M630.784 257.536c-58.368 0-126.464-13.824-126.464-52.736s68.096-52.736 126.464-52.736S757.76 165.376 757.76 204.8s-68.608 52.736-126.976 52.736zM552.448 204.8c13.312 5.632 40.448 11.776 78.336 11.776s65.024-6.144 78.336-11.776c-13.312-5.632-40.448-11.776-78.336-11.776s-65.024 6.144-78.336 11.776z m165.376 4.608zM630.784 933.888c-162.816 0-327.68-39.424-327.68-114.688 0-11.264 9.216-20.48 20.48-20.48s20.48 9.216 20.48 20.48c0 25.088 101.376 73.728 286.72 73.728s286.72-48.64 286.72-73.728c0-11.264 9.216-20.48 20.48-20.48s20.48 9.216 20.48 20.48c0.512 75.264-164.352 114.688-327.68 114.688z"  /><path d="M293.376 806.912H115.712c-16.896 0-32.768-8.192-41.984-22.528a50.688 50.688 0 0 1-4.608-47.616l104.448-253.952c1.024-2.56 1.024-5.12 0-7.168L69.12 221.696c-6.656-15.872-4.608-33.28 4.608-47.616 9.216-13.824 25.088-22.528 41.984-22.528h207.872c11.264 0 20.48 9.216 20.48 20.48v584.192c0 28.16-23.04 50.688-50.688 50.688z m-177.664-614.4c-4.608 0-7.168 2.56-8.192 4.096-1.024 1.536-2.56 5.12-1.024 9.216l104.448 253.952c5.12 12.288 5.12 26.112 0 38.4L107.008 752.64c-1.536 4.096 0 7.68 1.024 9.216 1.024 1.536 3.584 4.096 8.192 4.096h177.664c5.12 0 9.728-4.608 9.728-9.728V192.512H115.712z"  /></svg>