<?xml version="1.0" standalone="no"?><!DOCTYPE svg PUBLIC "-//W3C//DTD SVG 1.1//EN" "http://www.w3.org/Graphics/SVG/1.1/DTD/svg11.dtd"><svg class="icon" width="200px" height="200.00px" viewBox="0 0 1024 1024" version="1.1" xmlns="http://www.w3.org/2000/svg"><path d="M554.1 663.7c-55.2 0-112.1-19.2-160.9-55.1-55.7-41-92.3-97.9-100.5-156.3l55.5-7.7c6.1 43.5 34.5 86.8 78.2 118.9 47.8 35.1 104.7 50.4 156 41.9 109-18.1 193.1-117.4 179.9-212.5l55.5-7.7c4.3 30.9 1.3 62.5-8.9 93.9-9.7 29.7-25.3 57.6-46.4 83.1-21 25.3-46.2 46.7-74.9 63.5-29.9 17.6-62.2 29.3-96 34.9-12.3 2.1-24.9 3.1-37.5 3.1z" fill="#2D5B56" /><path d="M428 439.1c-13.8 0-25.7-10.1-27.7-24.1-2.1-15.3 8.6-29.5 23.9-31.6l44.4-6.2c15.3-2.1 29.5 8.6 31.6 23.9 2.1 15.3-8.6 29.5-23.9 31.6l-44.4 6.2c-1.4 0.1-2.7 0.2-3.9 0.2z" fill="#2D5B56" /><path d="M576.8 435.5l149.8-20.9c11.7 83.9-61.9 161.8-149.5 175.6-75.7 12-172.1-45.4-183.8-129.2l61.5-8.6 11.9-1.7" fill="#BAF4EA" /><path d="M553.6 739c-69.9 0-138.2-21.2-196.3-61.4-71-49.2-120.7-122.4-139.9-206.2-3.4-14.7-0.4-30.2 8.1-42.6 8.6-12.5 22.1-20.8 37.1-22.9l83.4-11.6c15.3-2.1 29.5 8.6 31.6 23.9s-8.6 29.5-23.9 31.6L272.4 461c34.2 143.4 174.9 239.6 321.4 219.2 146.5-20.4 255.5-151.3 249.3-298.6l-237.6 33.1c-15.3 2.1-29.5-8.6-31.6-23.9s8.6-29.5 23.9-31.6l239.7-33.4c15-2.1 30.3 2.2 41.9 11.9 11.6 9.6 18.7 23.7 19.5 38.7 4.4 85.9-23.5 169.9-78.3 236.6-55.2 67.1-133 110.6-219.1 122.6-16 2.3-32 3.4-47.9 3.4zM477 487.2l-7.8 10.8" fill="#2D5B56" /><path d="M469.2 518c-4.1 0-8.2-1.2-11.7-3.8-9-6.5-11-19-4.5-27.9l7.8-10.9c6.5-9 19-11 27.9-4.5 9 6.5 11 19 4.5 27.9l-7.8 10.9c-3.9 5.5-10 8.3-16.2 8.3zM574.6 472.7l-7.9 10.8M566.7 503.5c-4.1 0-8.2-1.2-11.7-3.8-9-6.5-11-19-4.5-27.9l7.8-10.9c6.5-9 19-11 27.9-4.5 9 6.5 11 19 4.5 27.9l-7.8 10.9c-3.9 5.5-10 8.3-16.2 8.3zM660.7 459.5l-7.8 10.9M652.9 490.4c-4.1 0-8.2-1.2-11.7-3.8-9-6.5-11-19-4.5-27.9l7.8-10.9c6.5-9 19-11 27.9-4.5 9 6.5 11 19 4.5 27.9l-7.8 10.9c-3.9 5.4-10 8.3-16.2 8.3zM541.8 543.9l-7.8 10.8M534 574.7c-4.1 0-8.2-1.2-11.7-3.8-9-6.5-11-19-4.5-27.9l7.8-10.9c6.5-9 19-11 27.9-4.5 9 6.5 11 19 4.5 27.9l-7.8 10.9c-3.9 5.5-10 8.3-16.2 8.3zM632.2 529.6l-7.9 10.9M624.3 560.5c-4.1 0-8.2-1.2-11.7-3.8-9-6.5-11-19-4.5-27.9l7.8-10.9c6.5-9 19-11 27.9-4.5 9 6.5 11 19 4.5 27.9l-7.8 10.9c-3.9 5.4-10 8.3-16.2 8.3zM886.3 175.2c12 0 21.7 9.7 21.7 21.7s-9.7 21.7-21.7 21.7-21.7-9.7-21.7-21.7 9.8-21.7 21.7-21.7m0-40c-34 0-61.7 27.7-61.7 61.7s27.7 61.7 61.7 61.7 61.7-27.7 61.7-61.7-27.6-61.7-61.7-61.7zM229.3 867.8h-0.2c-8.3-0.1-14.9-6.9-14.8-15.2l1-69.5c0.1-8.2 6.8-14.8 15-14.8h0.2c8.3 0.1 14.9 6.9 14.8 15.2l-1 69.5c-0.1 8.2-6.8 14.8-15 14.8z" fill="#2D5B56" /><path d="M279.6 818.6v0.2c-0.1 8.3-6.9 14.9-15.2 14.8l-69.5-1c-8.2-0.1-14.8-6.8-14.8-15v-0.2c0.1-8.3 6.9-14.9 15.2-14.8l69.5 1c8.2 0.1 14.8 6.8 14.8 15z" fill="#2D5B56" /><path d="M884 801m-30.9 0a30.9 30.9 0 1 0 61.8 0 30.9 30.9 0 1 0-61.8 0Z" fill="#2D5B56" /><path d="M188.9 307m-20.7 0a20.7 20.7 0 1 0 41.4 0 20.7 20.7 0 1 0-41.4 0Z" fill="#2D5B56" /><path d="M473.7 126v30.8M473.7 166.8c-5.5 0-10-4.5-10-10V126c0-5.5 4.5-10 10-10s10 4.5 10 10v30.8c0 5.5-4.5 10-10 10zM473.7 208.6v30.8M473.7 249.4c-5.5 0-10-4.5-10-10v-30.8c0-5.5 4.5-10 10-10s10 4.5 10 10v30.8c0 5.5-4.5 10-10 10z" fill="#2D5B56" /><path d="M417 182.7h30.8M447.8 192.7H417c-5.5 0-10-4.5-10-10s4.5-10 10-10h30.8c5.5 0 10 4.5 10 10s-4.5 10-10 10z" fill="#2D5B56" /><path d="M499.6 182.7h30.8M530.4 192.7h-30.8c-5.5 0-10-4.5-10-10s4.5-10 10-10h30.8c5.5 0 10 4.5 10 10s-4.5 10-10 10z" fill="#2D5B56" /><path d="M433.6 222.8l21.8-21.8M433.6 232.8c-2.6 0-5.1-1-7.1-2.9-3.9-3.9-3.9-10.2 0-14.1l21.8-21.8c3.9-3.9 10.2-3.9 14.1 0 3.9 3.9 3.9 10.2 0 14.1l-21.8 21.8c-1.9 1.9-4.4 2.9-7 2.9z" fill="#2D5B56" /><path d="M492 164.4l21.8-21.8M492 174.4c-2.6 0-5.1-1-7.1-2.9-3.9-3.9-3.9-10.2 0-14.1l21.8-21.8c3.9-3.9 10.2-3.9 14.1 0 3.9 3.9 3.9 10.2 0 14.1L499 171.5c-1.9 1.9-4.4 2.9-7 2.9z" fill="#2D5B56" /><path d="M513.8 222.8L492 201M513.8 232.8c-2.6 0-5.1-1-7.1-2.9l-21.8-21.8c-3.9-3.9-3.9-10.2 0-14.1 3.9-3.9 10.2-3.9 14.1 0l21.8 21.8c3.9 3.9 3.9 10.2 0 14.1-1.9 1.9-4.5 2.9-7 2.9z" fill="#2D5B56" /><path d="M455.4 164.4l-21.8-21.8M455.4 174.4c-2.6 0-5.1-1-7.1-2.9l-21.8-21.8c-3.9-3.9-3.9-10.2 0-14.1 3.9-3.9 10.2-3.9 14.1 0l21.8 21.8c3.9 3.9 3.9 10.2 0 14.1-1.9 1.9-4.5 2.9-7 2.9z" fill="#2D5B56" /></svg>