<?xml version="1.0" standalone="no"?><!DOCTYPE svg PUBLIC "-//W3C//DTD SVG 1.1//EN" "http://www.w3.org/Graphics/SVG/1.1/DTD/svg11.dtd"><svg class="icon" width="200px" height="200.00px" viewBox="0 0 1024 1024" version="1.1" xmlns="http://www.w3.org/2000/svg"><path d="M720.78313245 733.81826939c-1.98841078-7.06990459-3.31401797-14.36074413-3.53495294-21.87251865v-5.96523235c-0.44186863-3.09308301-0.66280359-5.96523235-0.88373726-9.05831537-0.22093497-4.86056012 0-9.72111895 0.88373726-14.58167909-0.22093497-11.04672615 1.98841078-21.65158367 6.18616732-31.37270393 3.7558866-15.90728628 12.5932683-30.26803041 24.30279804-41.31475655 3.53495294-3.7558866 7.29083955-7.29083955 11.48859609-10.38392387l2.87214934-3.7558866V478.85982025H230.08753713v349.2974946H719.67846021l9.05831537-52.36148401c-4.63962516-10.60485751-7.51177452-22.0934536-8.1745781-34.24485198 0-2.43027941 0-5.0814938 0.22093497-7.73270947z" fill="#FFFFFF" /><path d="M719.67846021 831.02946419H230.08753713c-2.87214934 0-5.30242877-2.43027941-5.30242876-5.30242877V476.20860587c0-2.87214934 2.43027941-5.30242877 5.30242876-5.30242877h532.01035317c2.87214934 0 5.30242877 2.43027941 5.30242875 5.30242877v103.17642586c0 2.87214934-2.43027941 5.30242877-5.30242875 5.30242877s-5.30242877-2.43027941-5.30242876-5.30242877v-97.8739971h-521.40549565v338.69263707H719.67846021c2.87214934 0 5.30242877 2.43027941 5.30242876 5.30242876s-2.20934575 5.52336372-5.30242876 5.52336373z" fill="#222222" /><path d="M684.77080335 790.81937855H262.12304466V513.76747583h467.93933811v110.68820037" fill="#FFF4C7" /><path d="M327.96153553 476.20860587c-2.20934575-13.47700687-14.36074413-23.86092942-29.16335818-23.86092942-14.80261406 0-26.95401244 10.38392255-29.16335817 23.86092942h58.32671635z" fill="#FF9060" /><path d="M327.96153553 481.51103463h-58.32671635c-1.54654215 0-3.09308301-0.66280359-3.97682158-1.76747582-1.10467223-1.10467223-1.54654215-2.65121438-1.10467353-4.19775654 2.65121438-16.34915491 17.01195851-28.27961962 34.24485328-28.27961962s31.5936376 11.93046471 34.24485198 28.27961962c0.22093497 1.54654215-0.22093497 3.09308301-1.10467223 4.19775654s-2.43027941 1.76747583-3.97682157 1.76747582z m-51.03587681-10.60485753h43.74503727c-3.97682157-7.95364315-12.37233334-13.2560719-21.87251864-13.25607189s-17.89569707 5.52336372-21.87251863 13.25607189z" fill="#222222" /><path d="M378.33460876 654.7237079m-103.17642716 0a103.17642587 103.17642587 0 1 0 206.35285303 0 103.17642587 103.17642587 0 1 0-206.35285303 0Z" fill="#FFFFFF" /><path d="M378.33460876 763.20256253c-59.87325852 0-108.47885463-48.6055974-108.47885592-108.47885463s48.6055974-108.47885463 108.47885592-108.47885592 108.47885463 48.6055974 108.47885462 108.47885592-48.82653108 108.47885463-108.47885462 108.47885463z m0-206.13191807c-53.90802617 0-97.87399711 43.96597225-97.87399839 97.87399711s43.96597225 97.87399711 97.87399839 97.87399841 97.87399711-43.96597225 97.87399711-97.87399841-43.96597225-97.87399711-97.87399711-97.87399711z" fill="#222222" /><path d="M460.52225455 604.79250331h-167.46837588c-2.87214934 0-5.30242877-2.43027941-5.30242876-5.30242876s2.43027941-5.30242877 5.30242876-5.30242877h167.46837588c2.87214934 0 5.30242877 2.43027941 5.30242877 5.30242877s-2.43027941 5.30242877-5.30242877 5.30242876zM454.33608723 724.31808539h-155.3169762c-2.87214934 0-5.30242877-2.43027941-5.30242877-5.30242877s2.43027941-5.30242877 5.30242877-5.30242877h155.3169762c2.87214934 0 5.30242877 2.43027941 5.30242877 5.30242877s-2.20934575 5.30242877-5.30242877 5.30242877zM481.29009967 667.53790988h-203.25976874c-2.87214934 0-5.30242877-2.43027941-5.30242874-5.30242876s2.43027941-5.30242877 5.30242874-5.30242876h203.25976874c2.87214934 0 5.30242877 2.43027941 5.30242875 5.30242876s-2.43027941 5.30242877-5.30242875 5.30242876zM688.08482132 622.68820037h-152.44482686c-8.61644674 0-15.68635132-7.06990459-15.68635131-15.68635131s7.06990459-15.68635132 15.68635131-15.68635261h152.44482686c8.61644674 0 15.68635132 7.06990459 15.68635261 15.68635261s-6.84897091 15.68635132-15.68635261 15.68635131z m-152.44482686-20.98878007c-2.87214934 0-5.0814938 2.20934575-5.0814938 5.0814938 0 2.87214934 2.20934575 5.0814938 5.0814938 5.08149378h152.44482686c2.87214934 0 5.0814938-2.20934575 5.0814951-5.08149378 0-2.87214934-2.20934575-5.0814938-5.0814951-5.0814938h-152.44482686zM688.08482132 673.50314223h-152.44482686c-8.61644674 0-15.68635132-7.06990459-15.68635131-15.68635132s7.06990459-15.68635132 15.68635131-15.68635133h152.44482686c8.61644674 0 15.68635132 7.06990459 15.68635261 15.68635133s-6.84897091 15.68635132-15.68635261 15.68635132z m-152.44482686-20.98878008c-2.87214934 0-5.0814938 2.20934575-5.0814938 5.0814938 0 2.87214934 2.20934575 5.0814938 5.0814938 5.0814951h152.44482686c2.87214934 0 5.0814938-2.20934575 5.0814951-5.0814951 0-2.87214934-2.20934575-5.0814938-5.0814951-5.0814938h-152.44482686zM660.24707034 724.31808539h-124.38614092c-8.61644674 0-15.68635132-7.06990459-15.68635131-15.68635262s7.06990459-15.68635132 15.68635131-15.68635132h152.44482687c2.87214934 0 5.30242877 2.43027941 5.30242876 5.30242877s-2.43027941 5.30242877-5.30242876 5.30242875h-152.44482687c-2.87214934 0-5.0814938 2.20934575-5.08149379 5.0814938 0 2.87214934 2.20934575 5.0814938 5.08149379 5.08149508h124.38614092c2.87214934 0 5.30242877 2.43027941 5.30242874 5.30242877s-2.43027941 5.30242877-5.30242874 5.30242877z" fill="#222222" /><path d="M161.15596325 272.50696722l133.44445757 177.85229843" fill="#FFFFFF" /><path d="M294.60042082 455.66169442c-1.54654215 0-3.09308301-0.66280359-4.19775653-2.20934574L156.95820801 275.60005153c-1.76747583-2.43027941-1.3256072-5.7442974 1.10467222-7.51177452 2.43027941-1.76747583 5.7442974-1.3256072 7.51177452 1.10467224l133.44445628 177.85229843c1.76747583 2.43027941 1.3256072 5.7442974-1.10467224 7.51177452-1.10467223 0.66280359-2.20934575 1.10467223-3.31401797 1.10467222z" fill="#222222" /><path d="M161.15596325 272.50696722m-8.17457682 0a8.17457811 8.17457811 0 1 0 16.34915492 0 8.17457811 8.17457811 0 1 0-16.34915492 0Z" fill="#FFFFFF" /><path d="M161.15596325 285.76303911c-0.66280359 0-1.3256072 0-1.98841078-0.22093366-3.53495294-0.44186863-6.62803595-2.43027941-8.83738041-5.30242876-4.4186902-5.96523235-3.31401797-14.36074413 2.65121437-18.77943562s14.36074413-3.31401797 18.77943434 2.65121438c2.20934575 2.87214934 3.09308301 6.40710098 2.43028071 9.94205392-0.44186863 3.53495294-2.43027941 6.62803595-5.30242875 8.8373817-1.98841078 1.98841078-4.86056012 2.87214934-7.73270948 2.87214804z m0-16.12821993c-0.66280359 0-1.10467223 0.22093497-1.76747582 0.66280358-1.3256072 0.88373856-1.54654215 2.65121438-0.44186865 3.97682157 0.44186863 0.66280359 1.10467223 0.88373856 1.76747583 1.10467224 0.66280359 0 1.54654215 0 1.9884108-0.44186863 0.66280359-0.44186863 0.88373856-1.10467223 1.10467221-1.76747712 0-0.66280359 0-1.54654215-0.44186863-1.9884108-0.44186863-1.10467223-1.3256072-1.54654215-2.20934574-1.54654084zM215.28492438 268.75108062c-2.87214934 0-5.0814938-2.20934575-5.30242876-4.86056014-0.44186863-7.06990459-3.31401797-14.36074413-8.17457811-20.76784511-5.30242877-7.06990459-12.5932683-12.37233334-19.88410786-14.36074543-2.87214934-0.88373856-4.4186902-3.7558866-3.7558866-6.40710098 0.88373856-2.87214934 3.7558866-4.4186902 6.40710098-3.75588661 9.72111895 2.65121438 18.77943563 9.05831537 25.40747159 18.11663074 5.96523235 7.95364315 9.72111895 17.45382844 10.16298759 26.51214381 0.22093497 2.87214934-1.98841078 5.52336372-4.86055883 5.52336372 0.22093497 0 0 0 0 0zM251.51818715 265.6579976c-2.87214934 0-5.0814938-2.20934575-5.30242877-4.86056013-0.88373856-13.03513695-6.18616732-26.73307876-15.02354772-38.66354348-9.72111895-13.03513695-23.19812583-22.75625718-36.89606766-26.51214379-2.87214934-0.88373856-4.4186902-3.7558866-3.75588661-6.40710099 0.88373856-2.87214934 3.7558866-4.4186902 6.407101-3.75588661 16.12822124 4.4186902 31.15176897 15.24448269 42.64036504 30.48896538 10.16298889 13.47700687 16.12822124 29.16335819 17.23289347 44.40784085 0.22093497 2.87214934-1.98841078 5.52336372-4.86056012 5.52336243-0.22093497-0.22093497-0.44186863-0.22093497-0.44186863-0.22093366z" fill="#222222" /><path d="M137.29503383 327.29873194c-0.66280359 0-1.10467223 0-1.76747582-0.22093496-8.61644674-3.09308301-16.57008987-9.27925033-22.53532224-17.23289348-6.84897091-9.05831537-10.38392255-19.44223922-10.38392255-29.60522681 0-2.87214934 2.43027941-5.30242877 5.30242876-5.30242875 2.87214934 0 5.30242877 2.43027941 5.30242875 5.30242875-0.22093497 7.51177452 2.87214934 15.90728628 8.17457681 22.97719086 4.86056012 6.40710098 11.04672615 11.26766112 17.6747634 13.69794055 2.65121438 0.88373856 4.19775653 3.97682157 3.09308301 6.84897091-0.66280359 2.20934575-2.65121438 3.53495294-4.86056012 3.53495293zM124.03896193 361.32264895c-0.66280359 0-1.10467223 0-1.76747583-0.22093366-14.36074413-5.0814938-27.61681602-15.46541765-37.77980492-28.94242452-11.26766112-15.24448269-17.45382844-32.69831113-17.23289347-49.48933466 0-2.87214934 2.43027941-5.30242877 5.30242877-5.30242876 2.87214934 0 5.30242877 2.43027941 5.30242876 5.30242876-0.22093497 14.13981046 5.30242877 29.82616178 15.02354771 42.86129871 8.8373817 11.93046471 20.54691145 20.76784641 32.9192461 25.18653661 2.65121438 0.88373856 4.19775653 3.97682157 3.093083 6.84897092-0.66280359 2.20934575-2.65121438 3.7558866-4.86056012 3.7558866z" fill="#222222" /><path d="M114.98064656 831.02946419c-39.98915067 0-72.6874605-32.69831113-72.68746049-72.68746179v-115.54875921c0-39.98915067 32.69831113-72.6874605 72.68746049-72.68746179 39.98915067 0 72.6874605 32.69831113 72.68746049 72.68746179v115.54875921c0 39.7682157-32.69831113 72.6874605-72.68746049 72.68746179z" fill="#FFFFFF" /><path d="M114.98064656 836.33189295c-43.08223369 0-77.98988925-35.12859054-77.98988925-77.98989055v-115.54875921c0-43.08223369 35.12859054-77.98988925 77.98988925-77.98989055s77.98988925 35.12859054 77.98988925 77.98989055v115.54875921c0 42.86129872-34.90765557 77.98988925-77.98988925 77.98989055z m0-261.14461646c-37.11700133 0-67.38503173 30.26803041-67.38503173 67.38503174v115.54876051c0 37.11700133 30.26803041 67.38503173 67.38503173 67.38503172s67.6059667-30.26803041 67.60596669-67.38503172v-115.54876051c-0.22093497-37.11700133-30.48896537-67.38503173-67.60596669-67.38503174z" fill="#222222" /><path d="M114.98064656 804.51732038c-29.82616178 0-53.90802617-24.08186438-53.90802617-53.90802616v-101.18801508c0-29.82616178 24.08186438-53.90802617 53.90802617-53.90802616 29.82616178 0 53.90802617 24.08186438 53.90802617 53.90802616V750.60929422c0 29.60522682-24.08186438 53.90802617-53.90802617 53.90802616z" fill="#FFDE52" /><path d="M116.30625375 653.61903438c-2.87214934 0-5.30242877-2.43027941-5.30242877-5.30242876v-53.0242876c0-2.87214934 2.43027941-5.30242877 5.30242877-5.30242877s5.30242877 2.43027941 5.30242876 5.30242877v53.0242876c0 2.87214934-2.43027941 5.30242877-5.30242876 5.30242876z" fill="#222222" /><path d="M116.30625375 682.78239255c-2.87214934 0-5.30242877-2.43027941-5.30242877-5.30242875v-13.2560719c0-2.87214934 2.43027941-5.30242877 5.30242877-5.30242876s5.30242877 2.43027941 5.30242876 5.30242876v13.2560719c0 2.87214934-2.43027941 5.30242877-5.30242876 5.30242875z" fill="#222222" /><path d="M866.82085833 586.89680624l-8.61644675 10.60485753c-34.46578693-12.5932683-65.83849087 0-65.83849087 0l-9.27925033-11.70952975s48.38466243-17.89569707 83.73418795 1.10467222z" fill="#FFF4C7" /><path d="M936.85710444 721.22500108c-2.87214934 0-5.30242877-2.43027941-5.30242876-5.30242876v-26.73307748c0-58.768585-47.72185885-106.71137881-106.71137881-106.71137881-58.768585 0-106.71137881 47.72185885-106.71137881 106.71137881v26.73307748c0 2.87214934-2.43027941 5.30242877-5.30242876 5.30242876s-5.30242877-2.43027941-5.30242877-5.30242876v-26.73307748c0-64.51288368 52.58241897-117.09530135 117.09530138-117.09530266s117.09530135 52.58241897 117.09530266 117.09530266v26.73307748c0.44186863 2.87214934-1.98841078 5.30242877-4.86056013 5.30242876z" fill="#222222" /><path d="M757.67919882 833.68067857h-28.27961964c-6.84897091 0-12.5932683-5.52336372-12.5932683-12.59326832v-104.94390296c0-6.84897091 5.52336372-12.5932683 12.5932683-12.59326832h28.27961964c6.84897091 0 12.5932683 5.52336372 12.59326829 12.59326832v104.94390296c-0.22093497 6.84897091-5.7442974 12.5932683-12.59326829 12.59326832z" fill="#FFDE52" /><path d="M757.67919882 838.98310732h-28.27961964c-9.72111895 0-17.89569707-7.95364315-17.89569707-17.89569707v-104.94390296c0-9.72111895 7.95364315-17.89569707 17.89569707-17.89569707h28.27961964c9.72111895 0 17.89569707 7.95364315 17.89569706 17.89569707v104.94390296c-0.22093497 9.72111895-8.17457811 17.89569707-17.89569706 17.89569707z m-28.27961964-129.90950462c-3.97682157 0-7.29083955 3.31401797-7.29083954 7.29083955V821.30834394c0 3.97682157 3.31401797 7.29083955 7.29083954 7.29083954h28.27961964c3.97682157 0 7.29083955-3.31401797 7.29083953-7.29083954v-104.94390169c0-3.97682157-3.31401797-7.29083955-7.29083953-7.29083955h-28.27961964z" fill="#222222" /><path d="M724.75995402 710.84107852c-32.03550753 0-57.88484773 25.84934021-57.88484774 57.88484773s25.84934021 57.88484773 57.88484774 57.88484643V710.84107852z" fill="#FF9060" /><path d="M724.75995402 831.91320145c-34.90765557 0-63.18727649-28.27961962-63.18727651-63.1872752s28.27961962-63.18727649 63.18727651-63.18727649c2.87214934 0 5.30242877 2.43027941 5.30242875 5.30242876v115.76969416c0 2.87214934-2.43027941 5.30242877-5.30242875 5.30242877z m-5.30242877-115.5487592c-26.51214381 2.65121438-47.27999022 25.18653662-47.27999021 52.361484s20.76784641 49.71026963 47.27999021 52.361484v-104.722968z" fill="#222222" /><path d="M891.12365637 833.68067857h28.27961963c6.84897091 0 12.5932683-5.52336372 12.59326831-12.59326832v-104.94390296c0-6.84897091-5.52336372-12.5932683-12.59326831-12.59326832h-28.27961963c-6.84897091 0-12.5932683 5.52336372-12.5932683 12.59326832v104.94390296c0 6.84897091 5.52336372 12.5932683 12.5932683 12.59326832z" fill="#FFDE52" /><path d="M919.18234234 838.98310732h-28.27962093c-9.72111895 0-17.89569707-7.95364315-17.89569707-17.89569707v-104.94390296c0-9.72111895 7.95364315-17.89569707 17.89569707-17.89569707h28.27962093c9.72111895 0 17.89569707 7.95364315 17.89569706 17.89569707v104.94390296c0 9.72111895-7.95364315 17.89569707-17.89569706 17.89569707z m-28.05868597-129.90950462c-3.97682157 0-7.29083955 3.31401797-7.29083954 7.29083955V821.30834394c0 3.97682157 3.31401797 7.29083955 7.29083954 7.29083954h28.27961963c3.97682157 0 7.29083955-3.31401797 7.29083954-7.29083954v-104.94390169c0-3.97682157-3.31401797-7.29083955-7.29083954-7.29083955h-28.27961963z" fill="#222222" /><path d="M923.8219675 710.84107852c32.03550753 0 57.88484773 25.84934021 57.88484643 57.88484773s-25.84934021 57.88484773-57.88484643 57.88484643V710.84107852z" fill="#FF9060" /><path d="M923.8219675 831.91320145c-2.87214934 0-5.30242877-2.43027941-5.30242877-5.30242877V710.84107852c0-2.87214934 2.43027941-5.30242877 5.30242877-5.30242876 34.90765557 0 63.18727649 28.27961962 63.18727519 63.18727649s-28.27961962 63.18727649-63.18727519 63.1872752z m5.30242876-115.5487592v104.722968c26.51214381-2.65121438 47.27999022-25.18653662 47.27998891-52.361484s-20.76784641-49.71026963-47.27998891-52.361484z" fill="#222222" /><path d="M792.36592071 603.02502749c-1.54654215 0-3.09308301-0.66280359-4.19775653-1.98841079l-9.27925033-11.70953104c-1.76747583-2.20934575-1.3256072-5.52336372 0.88373856-7.51177322s5.52336372-1.3256072 7.5117745 0.88373727l7.06990459 8.8373817c9.27925033-2.87214934 34.24485198-8.8373817 62.08260296 0l6.40710229-7.95364314c1.76747583-2.20934575 5.0814938-2.65121438 7.51177321-0.6628036 2.20934575 1.76747583 2.65121438 5.0814938 0.66280361 7.51177451l-8.61644675 10.60485752c-1.3256072 1.76747583-3.7558866 2.43027941-5.96523236 1.54654087-32.25644119-11.70952975-61.64073435-0.22093497-61.861668 0-0.88373856 0.22093497-1.54654215 0.44186863-2.20934575 0.44186992z" fill="#222222" /><path d="M558.39625165 370.38096562h-34.46578694v-89.92035525H558.39625165c24.74466798 0 45.07064446 20.10504282 45.07064447 45.07064445-0.22093497 24.74466798-20.32597648 44.8497095-45.07064447 44.8497108z" fill="#FF9060" /><path d="M558.39625165 375.68339438h-34.46578694c-2.87214934 0-5.30242877-2.43027941-5.30242876-5.30242876v-89.92035525c0-2.87214934 2.43027941-5.30242877 5.30242876-5.30242877H558.39625165c27.83775099 0 50.37307323 22.53532223 50.37307324 50.37307322s-22.75625718 50.15213826-50.37307324 50.15213956z m-29.16335818-10.60485752H558.39625165c21.87251863 0 39.7682157-17.89569707 39.76821571-39.76821571s-17.89569707-39.7682157-39.76821571-39.7682157h-29.16335818v79.53643141z" fill="#222222" /><path d="M523.93046471 309.62396854h-42.41943008c-2.87214934 0-5.30242877-2.43027941-5.30242876-5.30242875s2.43027941-5.30242877 5.30242876-5.30242876h42.41943008c2.87214934 0 5.30242877 2.43027941 5.30242876 5.30242876s-2.43027941 5.30242877-5.30242876 5.30242875zM523.93046471 351.82246496h-42.41943008c-2.87214934 0-5.30242877-2.43027941-5.30242876-5.30242876s2.43027941-5.30242877 5.30242876-5.30242875h42.41943008c2.87214934 0 5.30242877 2.43027941 5.30242876 5.30242875s-2.43027941 5.30242877-5.30242876 5.30242876z" fill="#222222" /><path d="M915.64738939 506.9185062h-151.5610883c-2.87214934 0-5.30242877-2.43027941-5.30242876-5.30242875s2.43027941-5.30242877 5.30242876-5.30242877h151.5610883c13.2560719 0 23.86092942-10.82579248 23.86092943-23.86092942s-10.82579248-23.86092942-23.86092943-23.86092941H658.70052947c-0.44186863 0-0.88373856 0-1.32560719-0.22093497-17.89569707-1.3256072-31.81457257-16.34915491-31.81457256-34.46578695s13.9188755-32.91924479 31.81457256-34.46578695c0.44186863 0 0.88373856-0.22093497 1.32560719-0.22093496h93.89717554c13.2560719 0 23.86092942-10.82579248 23.86092942-23.86092942s-10.82579248-23.86092942-23.86092942-23.86092942h-149.13080889c-2.87214934 0-5.30242877-2.43027941-5.30242876-5.30242876s2.43027941-5.30242877 5.30242876-5.30242876h149.13080889c19.0003693 0 34.46578693 15.46541765 34.46578694 34.46578694s-15.46541765 34.46578693-34.46578694 34.46578694h-93.67624187c-12.81420326 0.66280359-22.75625718 11.04672615-22.75625591 23.86092943 0 12.81420326 9.94205392 23.19812583 22.75625591 23.86092942h256.50499128c19.0003693 0 34.46578693 15.46541765 34.46578696 34.46578694 0.22093497 19.44223922-15.24448269 34.90765557-34.24485199 34.90765687z" fill="#222222" /></svg>