<?xml version="1.0" standalone="no"?><!DOCTYPE svg PUBLIC "-//W3C//DTD SVG 1.1//EN" "http://www.w3.org/Graphics/SVG/1.1/DTD/svg11.dtd"><svg xmlns:xlink="http://www.w3.org/1999/xlink" t="1593744142760" class="icon" viewBox="0 0 1024 1024" version="1.1" xmlns="http://www.w3.org/2000/svg" p-id="12369" width="200" height="200"><defs><style type="text/css"></style></defs><path d="M894.756571 834.56V369.810286a61.659429 61.659429 0 0 0-60.123428-60.123429h-60.123429a61.659429 61.659429 0 0 0-60.123428 60.123429v464.896h-60.123429V193.389714a61.659429 61.659429 0 0 0-60.123428-60.123428h-60.123429a61.659429 61.659429 0 0 0-60.123429 60.123428v641.243429h-60.050285V485.961143a61.659429 61.659429 0 0 0-60.123429-60.123429h-60.123428a61.659429 61.659429 0 0 0-60.123429 60.123429v348.672h-40.082286V133.12A61.659429 61.659429 0 0 0 133.266286 73.142857 61.659429 61.659429 0 0 0 73.142857 133.266286v757.467428c0 32.036571 28.086857 60.123429 60.123429 60.123429h757.467428a61.659429 61.659429 0 0 0 60.123429-60.123429 54.857143 54.857143 0 0 0-56.100572-56.100571" p-id="12370"></path></svg>