<?xml version="1.0" standalone="no"?><!DOCTYPE svg PUBLIC "-//W3C//DTD SVG 1.1//EN" "http://www.w3.org/Graphics/SVG/1.1/DTD/svg11.dtd"><svg class="icon" width="200px" height="200.00px" viewBox="0 0 1024 1024" version="1.1" xmlns="http://www.w3.org/2000/svg"><path d="M78.3 166.7h587.3c7.7 0 14 6.3 14 14v419.5c0 7.7-6.3 14-14 14H331.9L191 721.6V614.2H78.3c-7.7 0-14-6.3-14-14V180.7c0-7.8 6.3-14 14-14z m28 28c-7.7 0-14 6.3-14 14v363.6c0 7.7 6.3 14 14 14h111.6v84.4l98.1-84.4h321.7c7.7 0 14-6.3 14-14V208.6c0-7.7-6.3-14-14-14H106.3z m601.3 140.4h237.7c7.7 0 14 6.3 14 14.1v422.5c0 7.8-6.3 14.1-14 14.1H832.7v108.1L691.8 785.7H358c-7.7 0-14-6.3-14-14.1V643h28v100.6c0 7.7 6.3 14 14 14h321.7l98.1 85v-85h111.6c7.7 0 14-6.3 14-14V377.2c0-7.7-6.3-14-14-14H707.6v-28.1z m-559.4-98.5h447.5c7.7 0 14 6.3 14 14v83.9c0 7.7-6.3 14-14 14H148.2c-7.7 0-14-6.3-14-14v-83.9c0.1-7.7 6.3-14 14-14z m14 28v55.9h419.5v-55.9H162.2z m-14 111.9h447.5c7.7 0 14 6.3 14 14v83.9c0 7.7-6.3 14-14 14H148.2c-7.7 0-14-6.3-14-14v-83.9c0.1-7.8 6.3-14 14-14z m14 27.9v55.9h419.5v-55.9H162.2z" fill="#666666" /><path d="M718.1 620.6V404.4h157.3c7.7 0 14 6.3 14 14v279.7c0 7.7-6.3 14-14 14H441.9c-7.7 0-14-6.3-14-14v-49.5h262.2c15.5-0.1 28-12.6 28-28z" fill="#19CAB6" /></svg>