<?xml version="1.0" standalone="no"?><!DOCTYPE svg PUBLIC "-//W3C//DTD SVG 1.1//EN" "http://www.w3.org/Graphics/SVG/1.1/DTD/svg11.dtd"><svg xmlns:xlink="http://www.w3.org/1999/xlink" t="1596420514178" class="icon" viewBox="0 0 1024 1024" version="1.1" xmlns="http://www.w3.org/2000/svg" p-id="7114" width="200" height="200"><defs><style type="text/css"></style></defs><path d="M832 0H192a64 64 0 0 0-64 64v896a64 64 0 0 0 64 64h64a64 64 0 0 1 128 0h64a64 64 0 0 1 128 0h64a64 64 0 0 1 128 0h64a64 64 0 0 0 64-64V64a64 64 0 0 0-64-64z" fill="#55ACE0" p-id="7115"></path><path d="M832 0H192a64 64 0 0 1 0 128h640a64 64 0 0 0 0-128z" fill="#FFFFFF" opacity=".5" p-id="7116"></path><path d="M640 256m32 0l128 0q32 0 32 32l0 0q0 32-32 32l-128 0q-32 0-32-32l0 0q0-32 32-32Z" fill="#FFFFFF" opacity=".5" p-id="7117"></path><path d="M232.32 336m24 0l144 0q24 0 24 24l0 0q0 24-24 24l-144 0q-24 0-24-24l0 0q0-24 24-24Z" fill="#FFFFFF" p-id="7118"></path><path d="M200.32 416.32m24 0l208 0q24 0 24 24l0 0q0 24-24 24l-208 0q-24 0-24-24l0 0q0-24 24-24Z" fill="#FFFFFF" p-id="7119"></path><path d="M352.32 320m0 24l0 208q0 24-24 24l0 0q-24 0-24-24l0-208q0-24 24-24l0 0q24 0 24 24Z" fill="#FFFFFF" p-id="7120"></path><path d="M280.034692 246.067057m16.970563 16.970563l33.941125 33.941125q16.970563 16.970563 0 33.941126l0 0q-16.970563 16.970563-33.941125 0l-33.941126-33.941126q-16.970563-16.970563 0-33.941125l0 0q16.970563-16.970563 33.941126 0Z" fill="#FFFFFF" p-id="7121"></path><path d="M411.871688 279.989437m-16.970563 16.970563l-33.941125 33.941125q-16.970563 16.970563-33.941125 0l0 0q-16.970563-16.970563 0-33.941125l33.941125-33.941125q16.970563-16.970563 33.941125 0l0 0q16.970563 16.970563 0 33.941125Z" fill="#FFFFFF" p-id="7122"></path><path d="M512 448m32 0l256 0q32 0 32 32l0 0q0 32-32 32l-256 0q-32 0-32-32l0 0q0-32 32-32Z" fill="#FFFFFF" opacity=".5" p-id="7123"></path><path d="M320 647.52m32 0l448 0q32 0 32 32l0 0q0 32-32 32l-448 0q-32 0-32-32l0 0q0-32 32-32Z" fill="#FFFFFF" opacity=".5" p-id="7124"></path></svg>