<?xml version="1.0" standalone="no"?><!DOCTYPE svg PUBLIC "-//W3C//DTD SVG 1.1//EN" "http://www.w3.org/Graphics/SVG/1.1/DTD/svg11.dtd"><svg class="icon" width="200px" height="200.00px" viewBox="0 0 1024 1024" version="1.1" xmlns="http://www.w3.org/2000/svg"><path d="M597.71867007 662.57326541h234.78369056v240.81667616h-234.78369056z" fill="#FFF4C7" /><path d="M832.75373553 909.42292718h-234.78369057c-3.26786769 0-6.03298562-2.76511791-6.03298561-6.03298561V566.29687052c0-3.26786769 2.76511791-6.03298562 6.03298561-6.03298562h234.78369057c3.26786769 0 6.03298562 2.76511791 6.03298561 6.03298562v337.34444595c0 3.26786769-2.76511791 5.78161072-6.03298561 5.78161071z m-229.00207983-12.06597122h222.96909422V572.32985613h-222.96909422v325.02709983z" fill="#222222" /><path d="M831.74823743 667.09800462h-234.02956736c-3.26786769 0-6.03298562-2.76511791-6.03298561-6.03298561s2.76511791-6.03298562 6.03298561-6.03298561h234.02956736c3.26786769 0 6.03298562 2.76511791 6.03298562 6.03298561s-2.76511791 6.03298562-6.03298562 6.03298561zM781.47335782 764.8826474H703.04454486c-3.26786769 0-6.03298562-2.76511791-6.03298561-6.03298562s2.76511791-6.03298562 6.03298561-6.03298561h78.17743806c3.26786769 0 6.03298562 2.76511791 6.03298561 6.03298561s-2.5137445 6.03298562-5.78161071 6.03298562zM781.47335782 813.1465323H703.04454486c-3.26786769 0-6.03298562-2.76511791-6.03298561-6.03298562s2.76511791-6.03298562 6.03298561-6.03298562h78.17743806c3.26786769 0 6.03298562 2.76511791 6.03298561 6.03298562s-2.5137445 6.03298562-5.78161071 6.03298562z" fill="#222222" /><path d="M661.06501901 876.49288121h292.09705386v27.14843526H661.06501901z" fill="#FF9060" /><path d="M953.16207287 909.42292718H661.06501901c-3.26786769 0-6.03298562-2.76511791-6.03298561-6.03298561V876.49288121c0-3.26786769 2.76511791-6.03298562 6.03298561-6.03298562h292.09705386c3.26786769 0 6.03298562 2.76511791 6.03298562 6.03298562v27.14843526c0 3.26786769-2.76511791 5.78161072-6.03298562 5.78161071z m-286.06406825-12.06597122h280.03108264v-15.08246403H667.09800462v15.08246403z" fill="#222222" /><path d="M953.16207287 876.49288121h27.14843526v27.14843526h-27.14843526z" fill="#FFDE52" /><path d="M980.31050813 909.42292718h-27.14843526c-3.26786769 0-6.03298562-2.76511791-6.03298561-6.03298561V876.49288121c0-3.26786769 2.76511791-6.03298562 6.03298561-6.03298562h27.14843526c3.26786769 0 6.03298562 2.76511791 6.03298562 6.03298562v27.14843526c0 3.26786769-2.76511791 5.78161072-6.03298562 5.78161071z m-21.11544964-12.06597122h15.08246402v-15.08246403h-15.08246402v15.08246403z" fill="#222222" /><path d="M472.28284522 138.96039014h81.94805408v34.68966728h-81.94805408z" fill="#FF9060" /><path d="M554.2308993 179.68304303h-81.94805408c-3.26786769 0-6.03298562-2.76511791-6.03298561-6.03298561v-34.68966728c0-3.26786769 2.76511791-6.03298562 6.03298561-6.0329856h81.94805408c3.26786769 0 6.03298562 2.76511791 6.0329856 6.0329856v34.68966728c0 3.51924111-2.76511791 6.03298562-6.0329856 6.03298561z m-75.91506848-12.06597122h70.13345775v-22.62369604h-70.13345775v22.62369604z" fill="#222222" /><path d="M561.01800811 144.23925255h-99.04151432c-3.26786769 0-6.03298562-2.76511791-6.0329856-6.0329856v-17.84758342c0-3.26786769 2.76511791-6.03298562 6.0329856-6.03298561h99.04151432c3.26786769 0 6.03298562 2.76511791 6.03298559 6.03298561v17.84758342c0 3.51924111-2.5137445 6.03298562-6.03298559 6.0329856z m-93.0085287-12.06597122h87.22691797v-5.78161218h-87.22691797v5.78161218z" fill="#222222" /><path d="M600.98653777 441.86654225c-6.03298562-27.39981014-36.95203687-88.98653777-50.5262545-164.14748302-9.30085331-51.02900281-6.78710881-102.5607554-6.78710881-102.56075539h-61.33535423s2.5137445 51.78312601-6.7871088 102.56075539c-13.57421762 75.16094526-44.49326889 136.74767435-50.52625448 164.14748302-25.13744054 112.6157319-0.7541232 461.52339932-0.75412321 461.52339932H601.74066098s24.38331734-348.9076674-0.75412321-461.52339932z" fill="#FFFFFF" /><path d="M609.281893 742.00757646h-113.11848023c-3.26786769 0-6.03298562-2.76511791-6.03298562-6.03298562v-242.82767087c0-3.26786769 2.76511791-6.03298562 6.03298562-6.03298561h109.34786421c3.26786769 0 6.03298562 2.76511791 6.03298562 6.03298561s-2.76511791 6.03298562-6.03298562 6.0329856h-103.3148786v230.76169966h107.08549462c3.26786769 0 6.03298562 2.76511791 6.03298561 6.03298561s-2.76511791 6.03298562-6.03298561 6.03298562z" fill="#222222" /><path d="M612.04701091 709.58027878h-88.483788V519.54123201h85.46729519" fill="#FF9060" /><path d="M601.74066098 909.42292718h-177.47032724c-3.26786769 0-5.78161072-2.5137445-6.03298561-5.5302373-1.00549809-14.32834082-24.13194244-351.170037 0.7541232-463.28301913 2.2623696-10.05497651 7.28985712-23.62919413 13.82559251-40.97402776 11.81459632-31.42179956 27.90255844-74.40682206 36.70066198-122.92208185 9.04947843-49.52075641 6.78710881-100.8011341 6.7871088-101.30388389 0-1.75962129 0.50274831-3.26786769 1.75962131-4.52473922s2.76511791-1.75962129 4.2733643-1.75961982h61.08397933c1.75962129 0 3.26786769 0.7541232 4.27336582 1.75961982s1.75962129 2.76511791 1.7596198 4.52473922c0 0.50274831-2.2623696 51.53175259 6.78710881 101.30388389 8.79810353 48.51525979 24.88606564 91.50028226 36.70066347 122.92208185 6.53573393 17.34483364 11.56322291 30.91905125 13.82559104 40.97402776 25.13744054 112.11298213 1.75962129 448.95467979 0.7541232 463.28301913 0 3.26786769-2.5137445 5.53023729-5.78161072 5.5302373z m-171.68871505-12.06597122h166.15847774c3.01649281-45.24739209 21.86957285-351.42141189-1.00549662-454.23354218-2.01099472-9.04947843-7.0384837-22.37232116-13.3228442-39.21440648-11.81459632-31.92454934-28.15393334-75.41232014-37.2034103-124.93307657-7.54123201-41.22540118-7.54123201-82.19942896-7.0384837-97.53326787h-48.7666332c0.2513749 15.33383892 0.2513749 56.55924012-7.03848371 97.53326787-9.04947843 49.52075641-25.38881395 93.25990209-37.20341176 124.93307657-6.2843605 16.84208533-11.31184801 30.16492806-13.32284274 39.21440648-23.37781925 102.81213029-4.27336431 408.9861501-1.25687151 454.23354218z" fill="#222222" /><path d="M197.27925008 632.40833735v270.98160422h225.73421215V628.63772135l-74.15544865-50.27487962" fill="#FFFFFF" /><path d="M423.01346223 909.42292718h-225.98558557c-3.26786769 0-6.03298562-2.76511791-6.0329856-6.03298561V632.40833735c0-3.26786769 2.76511791-6.03298562 6.0329856-6.03298561s6.03298562 2.76511791 6.03298562 6.03298561v264.94861861h213.91961433V631.90558905l-71.64170414-48.76663322c-2.76511791-1.75962129-3.51924111-5.53023729-1.5082464-8.29535522 1.75962129-2.76511791 5.53023729-3.51924111 8.29535522-1.50824639l74.40682205 50.52625449c1.75962129 1.00549809 2.5137445 3.01649281 2.51374448 5.02748752v274.75222024c0 3.26786769-2.76511791 5.78161072-6.03298559 5.78161071z" fill="#222222" /><path d="M397.8760217 665.8411331V876.49288121h-175.45933107v-204.3673876s68.62521134 40.21990457 133.73118155-15.5852138c0 0 24.63469075 24.88606564 41.72814952 9.30085329z" fill="#FFF4C7" /><path d="M415.72360509 517.78161072c-7.28985712-22.62369604-28.40530676-38.96303158-53.29137387-38.96303159-17.84758194 0-33.68416918 8.29535522-43.99051911 21.36682455-11.06047312-5.78161072-23.62919413-9.04947843-36.95203688-9.04947843-28.90805655 0-54.04549562 15.08246403-68.37383791 37.70616008-1.50824641-0.2513749-3.26786769-0.2513749-4.77611264-0.2513749-28.40530676 0-51.53175259 23.12644435-51.53175259 51.5317526s23.12644435 51.53175259 51.53175259 51.53175111c5.53023729 0 10.55772482-0.7541232 15.58521235-2.51374301 14.83108915 14.83108915 35.19241559 24.13194244 57.81611162 24.13194243 31.67317446 0 59.32435803-18.35033172 72.64720224-44.74464377a58.82160972 58.82160972 0 0 0 49.0180081 26.14293716c32.67867255 0 59.32435803-26.64568694 59.32435801-59.32435803-0.50274831-28.15393334-20.36132644-51.78312601-47.00701191-57.5647382z" fill="#FFDE52" /><path d="M281.23830034 659.55677259c-22.37232116 0-43.23639738-8.29535522-59.57573292-23.62919265-4.52473921 1.00549809-9.04947843 1.75962129-13.82559251 1.75961981-31.67317446 0-57.56473821-25.89156372-57.56473673-57.56473672s25.89156372-57.56473821 57.56473673-57.56473821h1.75962129c16.33933554-23.62919413 42.73364759-37.45478518 71.64170414-37.45478518 12.31734611 0 24.38331734 2.5137445 35.44379049 7.54123201 11.81459632-12.82009443 28.15393334-20.10995154 45.75014039-20.10995302 25.89156372 0 48.76663321 15.83658723 58.06748652 39.71715627 27.90255844 7.7926069 47.76113659 33.68416918 47.76113657 62.84359915 0 35.94653878-29.41080486 65.35734363-65.35734362 65.35734509-18.60170514 0-35.94653878-7.7926069-48.26388493-21.36682453-15.83658723 25.38881395-43.23639738 40.47127798-73.40132542 40.47127798z m-57.81611161-36.19791366c1.50824641 0 3.26786769 0.7541232 4.2733643 1.75962128 14.32834082 14.57971571 33.18142087 22.37232116 53.54274731 22.37232117 28.65668166 0 54.29687052-15.83658723 67.11696493-41.47677609 1.00549809-2.01099472 2.76511791-3.26786769 5.02748752-3.26786621 2.2623696-0.2513749 4.27336431 0.7541232 5.27886242 2.51374301 10.05497651 14.57971571 26.39431205 23.37781925 44.24189548 23.37781926 29.41080486 0 53.29137242-23.88056754 53.29137239-53.29137243 0-24.63469075-17.59620852-46.50426362-41.72815097-52.03450091-2.01099472-0.50274831-3.770616-2.01099472-4.5247392-4.02199089-6.78710881-20.86407475-25.89156372-34.68966726-47.76113511-34.68966726-15.33383892 0-29.66217977 7.0384837-39.46578138 19.10445492-1.75962129 2.2623696-5.02748752 3.01649281-7.541232 1.50824641-10.80909971-5.53023729-22.12094773-8.29535522-34.18691897-8.29535522-25.89156372 0-49.52075641 13.07146933-63.34634894 34.94104216-1.25687152 2.01099472-3.26786769 3.01649281-5.53023583 2.76511791-1.50824641-0.2513749-3.01649281-0.2513749-4.27336577-0.25137488-25.13744054 0-45.49876699 20.36132644-45.4987655 45.49876697s20.36132644 45.49876699 45.4987655 45.49876698c4.7761141 0 9.30085331-0.7541232 13.57421763-2.01099618h2.01099619zM251.32474717 840.29496754c-3.26786769 0-6.03298562-2.76511791-6.03298562-6.03298561v-135.49080286c0-3.26786769 2.76511791-6.03298562 6.03298562-6.03298561s6.03298562 2.76511791 6.03298562 6.03298561v135.49080286c0 3.26786769-2.5137445 6.03298562-6.03298562 6.03298561zM365.95147381 840.29496754c-3.26786769 0-6.03298562-2.76511791-6.03298562-6.03298561v-135.49080286c0-3.26786769 2.76511791-6.03298562 6.03298562-6.03298561s6.03298562 2.76511791 6.0329856 6.03298561v135.49080286c0 3.26786769-2.76511791 6.03298562-6.0329856 6.03298561z" fill="#222222" /><path d="M314.67109611 840.29496754c-3.26786769 0-6.03298562-2.76511791-6.03298561-6.03298561v-102.30938199c0-3.26786769 2.76511791-6.03298562 6.03298561-6.0329856s6.03298562 2.76511791 6.0329856 6.0329856v102.30938199c0 3.26786769-2.76511791 6.03298562-6.0329856 6.03298561z" fill="#222222" /><path d="M191.24626447 852.36093876h-45.24739209c-3.26786769 0-6.03298562-2.76511791-6.0329856-6.0329856v-174.70520933c0-3.26786769 2.76511791-6.03298562 6.0329856-6.03298563h45.24739209c3.26786769 0 6.03298562 2.76511791 6.03298561 6.03298563s-2.76511791 6.03298562-6.03298561 6.03298561h-39.21440646v162.6392381h39.21440646c3.26786769 0 6.03298562 2.76511791 6.03298561 6.03298562s-2.76511791 6.03298562-6.03298561 6.0329856z" fill="#222222" /><path d="M220.65706933 450.16189748c-1.50824641 0-3.01649281-0.50274831-4.27336431-1.7596213-67.87108813-67.11696494-137.50179757-39.71715478-140.51829039-38.71165668-3.01649281 1.25687152-6.53573393-0.2513749-7.79260542-3.26786771s0.2513749-6.53573393 3.26786621-7.7926069c0.7541232-0.2513749 79.93705935-31.92454934 153.58975969 41.22540267 2.2623696 2.2623696 2.2623696 6.03298562 0 8.54672862-1.00549809 1.25687152-2.76511791 1.75962129-4.27336578 1.7596213z" fill="#222222" /><path d="M242.27526877 438.85004947c-3.26786769 0-6.03298562-2.76511791-6.03298561-6.03298563-0.2513749-95.77364658-71.39032925-126.44132295-72.14445394-126.69269785-3.01649281-1.25687152-4.52473921-4.7761141-3.26786622-7.7926069 1.25687152-3.01649281 4.7761141-4.52473921 7.79260543-3.26786624 0.7541232 0.2513749 79.18293616 34.18691895 79.43431105 137.75317099 0.2513749 3.26786769-2.2623696 5.78161072-5.78161071 6.03298563z" fill="#222222" /><path d="M88.93688396 281.74104865l-13.57421763 4.77611409c-1.75962129 0.7541232-4.0219909 0.2513749-5.53023728-0.75412319l-11.56322147-8.5467301c-4.0219909-3.01649281-9.80360162 0-9.5522282 5.02748897l0.2513749 14.57971427c0 2.01099472-1.00549809 3.770616-2.5137445 5.02748898l-11.81459633 8.29535523c-4.0219909 3.01649281-3.01649281 9.30085331 1.75962131 10.55772481l13.82559103 4.27336433c2.01099472 0.50274831 3.26786769 2.01099472 4.02199089 4.0219909l4.27336434 13.82559103c1.50824641 4.7761141 7.7926069 5.78161072 10.5577248 1.7596213l8.29535523-11.81459633c1.25687152-1.50824641 3.01649281-2.5137445 5.02748898-2.51374449l14.57971426 0.25137488c5.02748752 0 7.7926069-5.53023729 4.7761141-9.55222819l-8.79810352-11.56322145c-1.25687152-1.50824641-1.50824641-3.770616-1.0054981-5.5302373l4.5247392-13.82559251c1.50824641-5.2788624-3.01649281-9.80360162-7.54123201-8.29535523z" fill="#FF9060" /><path d="M64.05081831 352.88000448c-0.50274831 0-1.25687152 0-1.75962129-0.2513749-4.52473921-0.7541232-8.29535522-3.770616-9.55222673-8.2953552l-4.27336432-13.82559105-13.82559252-4.27336579c-4.52473921-1.25687152-7.54123201-5.02748752-8.29535521-9.55222671-0.7541232-4.52473921 1.25687152-9.04947843 4.77611409-11.81459633l11.81459634-8.29535523-0.25137489-14.57971573c0-4.52473921 2.5137445-8.79810353 6.53573538-10.80909971 4.0219909-2.01099472 9.04947843-1.75962129 12.56871955 1.00549809l11.56322293 8.54673012 13.57421761-4.7761141c4.27336431-1.50824641 9.04947843-0.50274831 12.31734466 2.76511789 3.26786769 3.26786769 4.52473921 8.04398033 3.01649279 12.31734613l-4.52473921 13.82559254 8.798105 11.56322143c2.76511791 3.770616 3.26786769 8.54673012 1.00549662 12.56872101-2.01099472 4.0219909-6.2843605 6.53573393-10.80909824 6.53573391l-14.57971571-0.25137488-8.29535522 11.81459779c-2.2623696 3.770616-6.03298562 5.78161072-9.80360163 5.78161072z m-9.80360163-70.88758094l0.2513749 14.57971573c0 4.0219909-1.75962129 7.7926069-5.02748898 10.05497503l-11.81459635 8.29535523 13.82559253 4.27336577c3.770616 1.25687152 6.78710881 4.0219909 8.04398033 7.79260545l4.27336431 13.8255925 8.29535523-11.81459631c2.2623696-3.26786769 6.03298562-5.02748752 10.05497651-5.027489l14.57971571 0.25137489-8.798105-11.56322292c-2.2623696-3.26786769-3.01649281-7.28985712-1.75961982-11.06047313l4.5247392-13.82559252-13.57421761 4.7761141c-3.770616 1.25687152-7.7926069 0.7541232-11.06047461-1.75962129l-11.81459635-8.79810353z m34.68966728-0.25137489z" fill="#222222" /><path d="M938.58235715 843.31146033c-0.7541232 0-1.50824641-0.2513749-2.51374302-0.50274978-3.01649281-1.25687152-4.52473921-4.7761141-3.01649282-8.04398031 0.2513749-0.50274831 24.38331734-57.56473821 0.25137344-106.07999651-26.89706036-54.04549562-1.00549809-103.06350372 0-105.3258748 1.50824641-3.01649281 5.2788624-4.0219909 8.04398178-2.51374303 3.01649281 1.50824641 4.0219909 5.2788624 2.51374302 8.04398033-0.2513749 0.50274831-24.13194244 46.0015153 0 94.0140253 26.89706036 53.54274731 1.25687152 113.62122852 0.2513749 116.13497303-1.00549809 2.76511791-3.26786769 4.27336431-5.5302373 4.27336577z" fill="#222222" /><path d="M980.81325643 843.31146033c-0.7541232 0-1.50824641-0.2513749-2.51374303-0.50274978-3.01649281-1.25687152-4.52473921-4.7761141-3.01649278-8.04398031 0.2513749-0.50274831 24.38331734-57.56473821 0.25137341-106.07999651-26.89706036-54.04549562-1.00549809-103.06350372 0-105.3258748 1.50824641-3.01649281 5.2788624-4.0219909 8.0439818-2.51374303 3.01649281 1.50824641 4.0219909 5.2788624 2.51374303 8.04398033-0.2513749 0.50274831-24.13194244 46.0015153 0 94.0140253 26.89706036 53.54274731 1.25687152 113.62122852 0.25137489 116.13497303-1.00549809 2.76511791-3.26786769 4.27336431-5.53023732 4.27336577z" fill="#222222" /></svg>