<?xml version="1.0" standalone="no"?><!DOCTYPE svg PUBLIC "-//W3C//DTD SVG 1.1//EN" "http://www.w3.org/Graphics/SVG/1.1/DTD/svg11.dtd"><svg class="icon" width="200px" height="200.00px" viewBox="0 0 1024 1024" version="1.1" xmlns="http://www.w3.org/2000/svg"><path d="M912 415.4v193.1c0 45.7-37.1 82.8-82.8 82.8H691.3v137.9c0 45.7-37.1 82.8-82.8 82.8H415.4c-45.8 0-82.8-37.1-82.8-82.8V691.3h-9.2V323.4h367.9v9.2h137.9c45.7 0.1 82.8 37.1 82.8 82.8z" fill="#9AE6DF" /><path d="M608.6 929.2H415.4c-55.1 0-100-44.9-100-100V708.6H194.8c-55.1 0-100-44.9-100-100V415.4c0-55.1 44.9-100 100-100h120.7V194.8c0-55.1 44.9-100 100-100h193.1c55.1 0 100 44.9 100 100v120.7h120.7c55.1 0 100 44.9 100 100v193.1c0 55.1-44.9 100-100 100H708.6v120.7c0 55.1-44.9 99.9-100 99.9zM194.8 349.9c-36.1 0-65.5 29.4-65.5 65.5v193.1c0 36.1 29.4 65.5 65.5 65.5H350v155.2c0 36.1 29.4 65.5 65.5 65.5h193.1c36.1 0 65.5-29.4 65.5-65.5V674.1h155.2c36.1 0 65.5-29.4 65.5-65.5V415.4c0-36.1-29.4-65.5-65.5-65.5H674.1V194.8c0-36.1-29.4-65.5-65.5-65.5H415.4c-36.1 0-65.5 29.4-65.5 65.5V350H194.8z" fill="#2B354A" /><path d="M636.1 529.2H387.8c-9.5 0-17.2-7.7-17.2-17.2s7.7-17.2 17.2-17.2h248.3c9.5 0 17.2 7.7 17.2 17.2s-7.7 17.2-17.2 17.2z" fill="#5ECEC2" /><path d="M512 653.3c-9.5 0-17.2-7.7-17.2-17.2V387.8c0-9.5 7.7-17.2 17.2-17.2s17.2 7.7 17.2 17.2v248.3c0 9.5-7.7 17.2-17.2 17.2z" fill="#5ECEC2" /></svg>