<?xml version="1.0" standalone="no"?><!DOCTYPE svg PUBLIC "-//W3C//DTD SVG 1.1//EN" "http://www.w3.org/Graphics/SVG/1.1/DTD/svg11.dtd"><svg class="icon" width="200px" height="200.00px" viewBox="0 0 1024 1024" version="1.1" xmlns="http://www.w3.org/2000/svg"><path d="M629.1 205.8H314.5c-29.8 0-54 24.2-54 54v595.5c0 29.8 24.2 54 54 54h314.6c29.8 0 54-24.2 54-54V259.8c0-29.8-24.2-54-54-54z m-333 80.5c0-6.6 5.4-12 12-12h16.7c-6.6 0-12 5.4-12 12v259c0 6.6 5.4 12 12 12h-16.7c-6.6 0-12-5.4-12-12v-259z m39.5 463h-26c-6.6 0-12-5.4-12-12v-40c0-6.6 5.4-12 12-12h26c-6.6 0-12 5.4-12 12v40c0 6.6 5.4 12 12 12z m38 64c-6.6 0-12-5.4-12-12v-52h26v52c0 6.6 5.4 12 12 12h-26z m14-180v52h-26v-52c0-6.6 5.4-12 12-12h26c-6.6 0-12 5.4-12 12z m209.2 177.3c-3.9 1.7-8.2 2.7-12.7 2.7-17.6 0-32-14.4-32-32s14.4-32 32-32c4.5 0 8.8 1 12.7 2.7-11.3 5-19.3 16.3-19.3 29.3 0.1 13.1 8 24.4 19.3 29.3z m64-128c-3.9 1.7-8.2 2.7-12.7 2.7-17.6 0-32-14.4-32-32s14.4-32 32-32c4.5 0 8.8 1 12.7 2.7-11.3 5-19.3 16.3-19.3 29.3 0.1 13.1 8 24.4 19.3 29.3z" fill="#F7F8F8" /><path d="M680.1 653.3c0-13.1-7.9-24.4-19.3-29.3-11.3 5-19.3 16.3-19.3 29.3 0 13.1 7.9 24.4 19.3 29.3 11.3-4.9 19.3-16.2 19.3-29.3zM489.6 737.3v-40c0-6.6-5.4-12-12-12h-52v-52c0-6.6-5.4-12-12-12h-14c-6.6 0-12 5.4-12 12v52h-52c-6.6 0-12 5.4-12 12v40c0 6.6 5.4 12 12 12h52v52c0 6.6 5.4 12 12 12h14c6.6 0 12-5.4 12-12v-52h52c6.6 0 12-5.4 12-12z" fill="#F7F8F8" /><path d="M690.1 205.8h-61c29.8 0 54 24.2 54 54v595.5c0 29.8-24.2 54-54 54h61c29.8 0 54-24.2 54-54V259.8c0-29.8-24.2-54-54-54z" fill="#2EA7E0" /><path d="M673.6 621.3c-4.5 0-8.8 1-12.7 2.7 11.3 5 19.3 16.3 19.3 29.3 0 13.1-7.9 24.4-19.3 29.3 3.9 1.7 8.2 2.7 12.7 2.7 17.6 0 32-14.4 32-32s-14.4-32-32-32zM439.6 621.3h-26c6.6 0 12 5.4 12 12v52h26v-52c0-6.6-5.4-12-12-12zM425.6 801.3c0 6.6-5.4 12-12 12h26c6.6 0 12-5.4 12-12v-52h-26v52zM503.6 685.3h-26c6.6 0 12 5.4 12 12v40c0 6.6-5.4 12-12 12h26c6.6 0 12-5.4 12-12v-40c0-6.6-5.4-12-12-12zM609.6 749.3c-4.5 0-8.8 1-12.7 2.7 11.3 5 19.3 16.3 19.3 29.3 0 13.1-7.9 24.4-19.3 29.3 3.9 1.7 8.2 2.7 12.7 2.7 17.6 0 32-14.4 32-32s-14.4-32-32-32z" fill="#2EA7E0" /><path d="M616.1 781.3c0-13.1-7.9-24.4-19.3-29.3-11.3 5-19.3 16.3-19.3 29.3 0 13.1 7.9 24.4 19.3 29.3 11.3-4.9 19.3-16.2 19.3-29.3z" fill="#F7F8F8" /><path d="M684.7 274.3H668c6.6 0 12 5.4 12 12v259c0 6.6-5.4 12-12 12h16.7c6.6 0 12-5.4 12-12v-259c0-6.6-5.4-12-12-12z" fill="#2EA7E0" /><path d="M680.1 545.3v-259c0-6.6-5.4-12-12-12H324.7c-6.6 0-12 5.4-12 12v259c0 6.6 5.4 12 12 12H668c6.7 0 12.1-5.4 12.1-12z" fill="#F7F8F8" /><path d="M804.2 289.5h13.6v13.6c0 3.4 2.8 6.2 6.2 6.2s6.2-2.8 6.2-6.2v-13.6h13.6c3.4 0 6.2-2.8 6.2-6.2s-2.8-6.2-6.2-6.2h-13.6v-13.6c0-3.4-2.8-6.2-6.2-6.2s-6.2 2.8-6.2 6.2v13.6h-13.6c-3.4 0-6.2 2.8-6.2 6.2s2.7 6.2 6.2 6.2zM158.4 544.7c-11.6 0-21 9.4-21 21s9.4 21 21 21 21-9.4 21-21-9.4-21-21-21z m0 32c-6.1 0-11-4.9-11-11s4.9-11 11-11 11 4.9 11 11-4.9 11-11 11zM818.7 801.4c-2.3 0-4.2 1.9-4.2 4.2V819c0 2.3 1.9 4.2 4.2 4.2s4.2-1.9 4.2-4.2v-13.4c0-2.3-1.9-4.2-4.2-4.2zM818.7 841.5c-2.3 0-4.2 1.9-4.2 4.2v13.4c0 2.3 1.9 4.2 4.2 4.2s4.2-1.9 4.2-4.2v-13.4c0-2.3-1.9-4.2-4.2-4.2zM831.1 838.8c-1.6-1.6-4.3-1.6-5.9 0-1.6 1.6-1.6 4.3 0 5.9l9.4 9.4c0.8 0.8 1.9 1.2 3 1.2s2.1-0.4 3-1.2c1.6-1.6 1.6-4.3 0-5.9l-9.5-9.4zM802.8 810.5c-1.6-1.6-4.3-1.6-5.9 0-1.6 1.6-1.6 4.3 0 5.9l9.4 9.4c0.8 0.8 1.9 1.2 3 1.2s2.1-0.4 3-1.2c1.6-1.6 1.6-4.3 0-5.9l-9.5-9.4zM806.3 838.8l-9.4 9.4c-1.6 1.6-1.6 4.3 0 5.9 0.8 0.8 1.9 1.2 3 1.2s2.1-0.4 3-1.2l9.4-9.4c1.6-1.6 1.6-4.3 0-5.9-1.7-1.6-4.4-1.6-6 0zM825.2 819.9c-1.6 1.6-1.6 4.3 0 5.9 0.8 0.8 1.9 1.2 3 1.2s2.1-0.4 3-1.2l9.4-9.4c1.6-1.6 1.6-4.3 0-5.9-1.6-1.6-4.3-1.6-5.9 0l-9.5 9.4zM845.4 828.2H832c-2.3 0-4.2 1.9-4.2 4.2 0 2.3 1.9 4.2 4.2 4.2h13.4c2.3 0 4.2-1.9 4.2-4.2 0-2.4-1.9-4.2-4.2-4.2zM809.5 832.3c0-2.3-1.9-4.2-4.2-4.2H792c-2.3 0-4.2 1.9-4.2 4.2 0 2.3 1.9 4.2 4.2 4.2h13.4c2.2 0 4.1-1.9 4.1-4.2z" fill="#036EB8" /><path d="M850 353m-8.9 0a8.9 8.9 0 1 0 17.8 0 8.9 8.9 0 1 0-17.8 0Z" fill="#036EB8" /><path d="M196.6 476.7m-8.9 0a8.9 8.9 0 1 0 17.8 0 8.9 8.9 0 1 0-17.8 0Z" fill="#036EB8" /><path d="M745.6 555.7c-5.5 0-10 4.5-10 10v289.6c0 24.3-19.7 44-44 44h-404c-24.3 0-44-19.7-44-44V353c0-5.5-4.5-10-10-10s-10 4.5-10 10v502.3c0 35.3 28.7 64 64 64h404c35.3 0 64-28.7 64-64V565.7c0-5.5-4.4-10-10-10zM745.6 497.9c-5.5 0-10 4.5-10 10v21c0 5.5 4.5 10 10 10s10-4.5 10-10v-21c0-5.5-4.4-10-10-10zM691.6 195.8h-404c-35.3 0-64 28.7-64 64v55.6c0 5.5 4.5 10 10 10s10-4.5 10-10v-55.6c0-24.3 19.7-44 44-44h404c24.3 0 44 19.7 44 44v204.1c0 5.5 4.5 10 10 10s10-4.5 10-10V259.8c0-35.3-28.7-64-64-64z" fill="#036EB8" /><path d="M691.6 286.1c0-12.1-9.9-22-22-22h-360c-12.1 0-22 9.9-22 22v259c0 12.1 9.9 22 22 22H531c5.5 0 10-4.5 10-10s-4.5-10-10-10H309.6c-1.1 0-2-0.9-2-2v-259c0-1.1 0.9-2 2-2h360c1.1 0 2 0.9 2 2v259c0 1.1-0.9 2-2 2h-107c-5.5 0-10 4.5-10 10s4.5 10 10 10h107.1c12.1 0 22-9.9 22-22v-259zM287.6 737.1c0 12.1 9.9 22 22 22h42v42c0 12.1 9.9 22 22 22h40c12.1 0 22-9.9 22-22v-42h42c12.1 0 22-9.9 22-22v-40c0-12.1-9.9-22-22-22h-42v-42c0-12.1-9.9-22-22-22h-40c-12.1 0-22 9.9-22 22v42h-42c-12.1 0-22 9.9-22 22v40z m20-40c0-1.1 0.9-2 2-2h52c5.5 0 10-4.5 10-10v-52c0-1.1 0.9-2 2-2h40c1.1 0 2 0.9 2 2v52c0 5.5 4.5 10 10 10h52c1.1 0 2 0.9 2 2v40c0 1.1-0.9 2-2 2h-52c-5.5 0-10 4.5-10 10v52c0 1.1-0.9 2-2 2h-40c-1.1 0-2-0.9-2-2v-52c0-5.5-4.5-10-10-10h-52c-1.1 0-2-0.9-2-2v-40zM691.6 653.1c0-23.2-18.8-42-42-42s-42 18.8-42 42 18.8 42 42 42 42-18.9 42-42z m-64 0c0-12.1 9.9-22 22-22s22 9.9 22 22-9.9 22-22 22-22-9.9-22-22zM585.6 739.1c-23.2 0-42 18.8-42 42s18.8 42 42 42 42-18.8 42-42-18.8-42-42-42z m0 64c-12.1 0-22-9.9-22-22s9.9-22 22-22 22 9.9 22 22-9.8 22-22 22z" fill="#036EB8" /><path d="M442.6 437.1m-16 0a16 16 0 1 0 32 0 16 16 0 1 0-32 0Z" fill="#3E3A39" /><path d="M410.6 463.8m-16 0a16 16 0 1 0 32 0 16 16 0 1 0-32 0Z" fill="#EF6676" /><path d="M582.2 463.8m-16 0a16 16 0 1 0 32 0 16 16 0 1 0-32 0Z" fill="#EF6676" /><path d="M550.2 437.1m-16 0a16 16 0 1 0 32 0 16 16 0 1 0-32 0Z" fill="#3E3A39" /><path d="M521.7 447.8h-50.6c-3.9 0-6.7 3.7-5.8 7.5 1.8 7.5 6.3 14 12.3 18.4 5.3 3.8 11.8 6.1 18.8 6.1s13.5-2.3 18.8-6.1c6.1-4.4 10.5-10.9 12.3-18.4 0.9-3.8-1.9-7.5-5.8-7.5z" fill="#3E3A39" /><path d="M496.4 463.8c-7 0-13.3 3.2-17.5 8.2-0.8 0.9-0.5 2.3 0.5 3 4.9 3.1 10.7 4.9 17 4.9s12.1-1.8 17-4.9c1-0.6 1.3-2 0.5-3-4.2-5-10.5-8.2-17.5-8.2z" fill="#E4847F" /></svg>