<?xml version="1.0" standalone="no"?><!DOCTYPE svg PUBLIC "-//W3C//DTD SVG 1.1//EN" "http://www.w3.org/Graphics/SVG/1.1/DTD/svg11.dtd"><svg class="icon" width="200px" height="200.00px" viewBox="0 0 1024 1024" version="1.1" xmlns="http://www.w3.org/2000/svg"><path d="M428.305067 833.206044H783.473778L532.878222 437.794133l-21.868089-34.5088-82.705066-130.514489v130.514489" fill="#CEBBA3" /><path d="M428.305067 272.770844h171.565511L955.050667 833.206044H783.485156" fill="#EADAC5" /><path d="M532.878222 403.285333H217.213156V724.764444a58.094933 58.094933 0 0 0 58.083555 58.083556h199.486578a58.083556 58.083556 0 0 0 58.083555-58.083556V403.285333z" fill="#C0EFFF" /><path d="M284.091733 724.764444V403.285333h-66.878577V724.764444a58.094933 58.094933 0 0 0 58.083555 58.083556h66.878578a58.072178 58.072178 0 0 1-58.083556-58.083556z" fill="#9FD0DD" /><path d="M271.860622 782.256356h206.370134v50.961066H271.860622z" fill="#C0EFFF" /><path d="M271.860622 782.256356h61.622045v50.961066h-61.622045z" fill="#9FD0DD" /><path d="M489.8816 272.770844h47.024356l355.180088 560.4352h-47.024355z" fill="#FC583D" /><path d="M967.156622 825.537422L669.639111 356.101689a14.336 14.336 0 0 0-24.200533 15.337244L928.995556 818.881422H899.982222L734.936178 558.466844a14.336 14.336 0 1 0-24.211911 15.337245l155.318044 245.065955h-13.084444L515.936711 287.095467h13.084445l156.672 247.216355a14.336 14.336 0 0 0 24.223288-15.337244l-146.955377-231.879111h29.036089l29.2864 46.216533a14.301867 14.301867 0 0 0 19.7632 4.425956 14.336 14.336 0 0 0 4.448711-19.774578l-33.507556-52.872534a14.336 14.336 0 0 0-12.105955-6.656h-171.576889c-0.170667 0-0.329956 0.034133-0.489245 0.056889a14.825244 14.825244 0 0 0-3.504355 0.512 14.324622 14.324622 0 0 0-10.3424 13.755734v84.775822a14.336 14.336 0 0 0 28.672 0v-35.384889l42.325333 66.787556H217.213156a14.336 14.336 0 0 0-14.336 14.336v25.361066a67.606756 67.606756 0 0 0-39.3216-12.572444A68.073244 68.073244 0 0 0 95.573333 484.0448v112.810667a66.491733 66.491733 0 0 0 47.251911 63.8976l22.528 6.906311c9.147733 2.798933 15.928889 10.023822 18.147556 19.330844a26.464711 26.464711 0 0 1-7.4752 25.440711l-12.151467 11.662223a14.336 14.336 0 1 0 19.8656 20.662044l12.151467-11.662222c2.616889-2.525867 4.960711-5.245156 6.997333-8.123734a72.544711 72.544711 0 0 0 54.636089 69.984712v38.229333c0 7.918933 6.417067 14.336 14.336 14.336H955.050667c5.2224 0 10.0352-2.844444 12.561066-7.418311a14.279111 14.279111 0 0 0-0.455111-14.563556zM454.3488 287.095467h27.648l337.021156 531.774577h-27.670756L547.214222 433.629867v-30.355911a14.336 14.336 0 0 0-14.336-14.336h-13.983289l-64.546133-101.842489zM173.761422 640.238933l-22.539378-6.894933a37.9904 37.9904 0 0 1-26.988088-36.499911v-112.799289a39.367111 39.367111 0 0 1 39.3216-39.3216 39.367111 39.367111 0 0 1 39.3216 39.3216v177.277156a55.057067 55.057067 0 0 0-29.115734-21.083023z m254.543645 178.642489H286.185244v-21.686044h177.720889v21.686044h-35.601066z m64.261689 0v-23.904711c31.368533-7.953067 54.647467-36.408889 54.647466-70.212267v-71.031466a14.336 14.336 0 0 0-28.672 0V724.764444a43.8272 43.8272 0 0 1-37.922133 43.360712c-0.773689-0.125156-210.375111-0.125156-211.1488 0a43.804444 43.804444 0 0 1-37.922133-43.360712V417.609956h287.004444v193.1264a14.336 14.336 0 1 0 28.672 0v-123.562667L757.418667 818.870044l-264.851911 0.011378z"  /><path d="M348.091733 296.061156c0 19.956622 6.417067 30.708622 11.582578 39.344355 4.369067 7.327289 7.532089 12.606578 7.532089 24.655645a14.336 14.336 0 0 0 28.660622 0c0-19.956622-6.417067-30.708622-11.582578-39.344356-4.369067-7.327289-7.532089-12.606578-7.532088-24.655644s3.151644-17.339733 7.532088-24.655645c5.154133-8.635733 11.582578-19.399111 11.582578-39.344355s-6.417067-30.708622-11.582578-39.344356c-4.369067-7.327289-7.532089-12.606578-7.532088-24.667022a14.336 14.336 0 0 0-28.672 0c0 19.956622 6.417067 30.708622 11.582577 39.355733 4.369067 7.327289 7.532089 12.606578 7.532089 24.655645 0 12.049067-3.163022 17.339733-7.532089 24.655644-5.142756 8.635733-11.5712 19.387733-11.5712 39.344356z"  /></svg>