<?xml version="1.0" standalone="no"?><!DOCTYPE svg PUBLIC "-//W3C//DTD SVG 1.1//EN" "http://www.w3.org/Graphics/SVG/1.1/DTD/svg11.dtd"><svg class="icon" width="200px" height="200.00px" viewBox="0 0 1024 1024" version="1.1" xmlns="http://www.w3.org/2000/svg"><path d="M831.4 303.1c-4.5 0-8.2-3.7-8.2-8.2 0-7.5-5.5-14.3-13-15.1-8.5-0.8-15.7 5.9-15.7 14.3v0.8c0 4.5-3.7 8.2-8.2 8.2-7.5 0-14.3 5.5-15.1 13-0.8 8.5 5.9 15.7 14.3 15.7h0.8c4.5 0 8.2 3.7 8.2 8.2 0 7.5 5.5 14.3 13 15.1 8.5 0.8 15.7-5.9 15.7-14.3v-0.8c0-4.5 3.7-8.2 8.2-8.2h0.8c8.3 0 15.1-7.2 14.3-15.7-0.8-7.5-7.6-13-15.1-13zM215.6 185.2c-4.5 0-8.2-3.7-8.2-8.2 0-7.5-5.5-14.3-13-15.1-8.5-0.8-15.7 5.9-15.7 14.3v0.8c0 4.5-3.7 8.2-8.2 8.2-7.5 0-14.3 5.5-15.1 13-0.8 8.5 5.9 15.7 14.3 15.7h0.8c4.5 0 8.2 3.7 8.2 8.2 0 7.5 5.5 14.3 13 15.1 8.5 0.8 15.7-5.9 15.7-14.3v-0.8c0-4.5 3.7-8.2 8.2-8.2h0.8c8.3 0 15.1-7.2 14.3-15.7-0.7-7.5-7.5-13-15.1-13z" fill="#9AD6E8" /><path d="M332.1 835.5c-7.2 0-13.1-5.9-13.1-13.1V578.5c0-7.2 5.9-13.1 13.1-13.1h361.3c7.2 0 13.1 5.9 13.1 13.1v243.9c0 7.2-5.9 13.1-13.1 13.1H332.1z" fill="#E5F1F9" /><path d="M693.3 578.5v243.9H332.1V578.5h361.2m0-26.2H332.1c-14.5 0-26.2 11.7-26.2 26.2v243.9c0 14.5 11.7 26.2 26.2 26.2h361.3c14.5 0 26.2-11.7 26.2-26.2V578.5c-0.1-14.5-11.8-26.2-26.3-26.2z" fill="#283163" /><path d="M388.8 835.5c-7.2 0-13.1-5.9-13.1-13.1V292.7c0-7.2 5.9-13.1 13.1-13.1h246.6c7.2 0 13.1 5.9 13.1 13.1v529.7c0 7.2-5.9 13.1-13.1 13.1H388.8z" fill="#E5F1F9" /><path d="M635.4 292.7v529.7H388.8V292.7h246.6m0-26.2H388.8c-14.5 0-26.2 11.7-26.2 26.2v529.7c0 14.5 11.7 26.2 26.2 26.2h246.6c14.5 0 26.2-11.7 26.2-26.2V292.7c0-14.5-11.7-26.2-26.2-26.2z" fill="#283163" /><path d="M591 292.7h44.3v529.7H591z" fill="#AAD4E9" /><path d="M322.9 835.5c-7.2 0-13.1-5.9-13.1-13.1V571.8c0-7.2 5.9-13.1 13.1-13.1h370.4c7.2 0 13.1 5.9 13.1 13.1v250.6c0 7.2-5.9 13.1-13.1 13.1H322.9z" fill="#E5F1F9" /><path d="M693.3 571.8v250.6H322.9V571.8h370.4m0-26.2H322.9c-14.5 0-26.2 11.7-26.2 26.2v250.6c0 14.5 11.7 26.2 26.2 26.2h370.4c14.5 0 26.2-11.7 26.2-26.2V571.8c0-14.5-11.7-26.2-26.2-26.2z" fill="#283163" /><path d="M591 571.8h104.8v250.6H591z" fill="#AAD4E9" /><path d="M477.5 498c-7.2 0-13.1-5.9-13.1-13.1V394c0-26.3 21.4-47.7 47.7-47.7 26.3 0 47.7 21.4 47.7 47.7v90.9c0 7.2-5.9 13.1-13.1 13.1h-69.2z" fill="#FFDBA0" /><path d="M512.1 359.4c19.1 0 34.6 15.5 34.6 34.6v90.9h-69.2V394c0-19.1 15.5-34.6 34.6-34.6m0-26.2c-33.5 0-60.8 27.3-60.8 60.8v90.9c0 14.5 11.7 26.2 26.2 26.2h69.2c14.5 0 26.2-11.7 26.2-26.2V394c0-33.5-27.3-60.8-60.8-60.8z" fill="#283163" /><path d="M322.9 559.5c-7.2 0-13.1-5.9-13.1-13.1v-50.9c0-7.2 5.9-13.1 13.1-13.1h370.4c7.2 0 13.1 5.9 13.1 13.1v50.9c0 7.2-5.9 13.1-13.1 13.1H322.9z" fill="#E5F1F9" /><path d="M693.3 495.5v50.9H322.9v-50.9h370.4m0-26.2H322.9c-14.5 0-26.2 11.7-26.2 26.2v50.9c0 14.5 11.7 26.2 26.2 26.2h370.4c14.5 0 26.2-11.7 26.2-26.2v-50.9c0-14.5-11.7-26.2-26.2-26.2z" fill="#283163" /><path d="M477.5 826c-7.2 0-13.1-5.9-13.1-13.1V722c0-26.3 21.4-47.7 47.7-47.7 26.3 0 47.7 21.4 47.7 47.7v90.9c0 7.2-5.9 13.1-13.1 13.1h-69.2z" fill="#FFDBA0" /><path d="M512.1 687.5c19.1 0 34.6 15.5 34.6 34.6V813h-69.2v-90.9c0-19.1 15.5-34.6 34.6-34.6m0-26.2c-33.5 0-60.8 27.3-60.8 60.8V813c0 14.5 11.7 26.2 26.2 26.2h69.2c14.5 0 26.2-11.7 26.2-26.2v-90.9c0-33.6-27.3-60.8-60.8-60.8z" fill="#283163" /><path d="M139.1 828.8c-7.2 0-13.1-5.9-13.1-13.1V571.8c0-7.2 5.9-13.1 13.1-13.1h213.4c7.2 0 13.1 5.9 13.1 13.1v243.9c0 7.2-5.9 13.1-13.1 13.1H139.1z" fill="#E5F1F9" /><path d="M352.5 571.8v243.9H139.1V571.8h213.4m0-26.2H139.1c-14.5 0-26.2 11.7-26.2 26.2v243.9c0 14.5 11.7 26.2 26.2 26.2h213.4c14.5 0 26.2-11.7 26.2-26.2V571.8c0-14.5-11.8-26.2-26.2-26.2z" fill="#283163" /><path d="M211.2 826c-7.2 0-13.1-5.9-13.1-13.1V722c0-26.3 21.4-47.7 47.7-47.7 26.3 0 47.7 21.4 47.7 47.7v90.9c0 7.2-5.9 13.1-13.1 13.1h-69.2z" fill="#FFDBA0" /><path d="M245.8 687.5c19.1 0 34.6 15.5 34.6 34.6V813h-69.2v-90.9c0-19.1 15.5-34.6 34.6-34.6m0-26.2c-33.5 0-60.8 27.3-60.8 60.8V813c0 14.5 11.7 26.2 26.2 26.2h69.2c14.5 0 26.2-11.7 26.2-26.2v-90.9c0-33.6-27.3-60.8-60.8-60.8z" fill="#283163" /><path d="M430.6 616.2h163" fill="#E5F1F9" /><path d="M593.6 629.3h-163c-7.2 0-13.1-5.9-13.1-13.1s5.9-13.1 13.1-13.1h163c7.2 0 13.1 5.9 13.1 13.1s-5.9 13.1-13.1 13.1z" fill="#283163" /><path d="M357.4 305.8c-8 0-15.1-4.8-18.1-12.3-3-7.5-1.2-15.9 4.7-21.4l150.6-143.4c4.8-4.5 11-7 17.6-7s12.8 2.5 17.6 7l150.6 143.4c5.8 5.5 7.6 13.9 4.7 21.4-3 7.5-10.1 12.3-18.1 12.3H357.4z" fill="#EF765E" /><path d="M512.1 134.8c3.1 0 6.1 1.1 8.5 3.4l150.6 143.4c4.2 4 1.4 11.1-4.4 11.1H357.4c-5.8 0-8.6-7.1-4.4-11.1l150.6-143.4c2.3-2.3 5.4-3.4 8.5-3.4m0-26.2c-9.9 0-19.4 3.8-26.6 10.6L334.9 262.7c-9.7 9.3-12.8 23.3-7.8 35.7 5 12.5 16.9 20.5 30.3 20.5h309.4c13.4 0 25.3-8.1 30.3-20.5 5-12.5 1.9-26.5-7.8-35.7L538.7 119.2c-7.2-6.8-16.7-10.6-26.6-10.6z" fill="#283163" /><path d="M671.2 281.6L520.6 138.2c-4.8-4.5-12.3-4.5-17.1 0l115.3 140.4c4.2 4 1.4 14.1-4.4 14.1h52.4c5.8 0 8.6-7.1 4.4-11.1z" fill="#E05A4C" /><path d="M313.2 571.8h39.3v241.9h-39.3z" fill="#AAD4E9" /><path d="M109 559.5c-7.2 0-13.1-5.9-13.1-13.1V416.6c0-7.2 5.9-13.1 13.1-13.1h39.3c7.2 0 13.1 5.9 13.1 13.1V476c0 2.8 2.3 5 5 5H208c2.8 0 5-2.3 5-5v-59.4c0-7.2 5.9-13.1 13.1-13.1H265c7.2 0 13.1 5.9 13.1 13.1V476c0 2.8 2.3 5 5 5h41.6c2.8 0 5-2.3 5-5v-59.4c0-7.2 5.9-13.1 13.1-13.1h39.7c7.2 0 13.1 5.9 13.1 13.1v129.8c0 7.2-5.9 13.1-13.1 13.1H109z" fill="#E5F1F9" /><path d="M382.6 416.6v129.8H109V416.6h39.3V476c0 10 8.1 18.1 18.1 18.1H208c10 0 18.1-8.1 18.1-18.1v-59.4H265V476c0 10 8.1 18.1 18.1 18.1h41.6c10 0 18.1-8.1 18.1-18.1v-59.4h39.8m0-26.2H343c-14.5 0-26.2 11.7-26.2 26.2v51.3h-25.5v-51.3c0-14.5-11.7-26.2-26.2-26.2h-38.9c-14.5 0-26.2 11.7-26.2 26.2v51.3h-25.5v-51.3c0-14.5-11.7-26.2-26.2-26.2H109c-14.5 0-26.2 11.7-26.2 26.2v129.8c0 14.5 11.7 26.2 26.2 26.2h273.7c14.5 0 26.2-11.7 26.2-26.2V416.6c-0.1-14.5-11.8-26.2-26.3-26.2z" fill="#283163" /><path d="M343.3 416.6h39.3v129.8h-39.3z" fill="#AAD4E9" /><path d="M128.2 609.5h235.1" fill="#E5F1F9" /><path d="M363.3 622.6H128.2c-7.2 0-13.1-5.9-13.1-13.1s5.9-13.1 13.1-13.1h235.1c7.2 0 13.1 5.9 13.1 13.1s-5.8 13.1-13.1 13.1z" fill="#283163" /><path d="M672 828.8c-7.2 0-13.1-5.9-13.1-13.1V571.8c0-7.2 5.9-13.1 13.1-13.1h213.4c7.2 0 13.1 5.9 13.1 13.1v243.9c0 7.2-5.9 13.1-13.1 13.1H672z" fill="#E5F1F9" /><path d="M885.4 571.8v243.9H672V571.8h213.4m0-26.2H672c-14.5 0-26.2 11.7-26.2 26.2v243.9c0 14.5 11.7 26.2 26.2 26.2h213.4c14.5 0 26.2-11.7 26.2-26.2V571.8c0-14.5-11.8-26.2-26.2-26.2z" fill="#283163" /><path d="M744.1 826c-7.2 0-13.1-5.9-13.1-13.1V722c0-26.3 21.4-47.7 47.7-47.7s47.7 21.4 47.7 47.7v90.9c0 7.2-5.9 13.1-13.1 13.1h-69.2z" fill="#FFDBA0" /><path d="M778.7 687.5c19.1 0 34.6 15.5 34.6 34.6V813h-69.2v-90.9c0-19.1 15.5-34.6 34.6-34.6m0-26.2c-33.5 0-60.8 27.3-60.8 60.8V813c0 14.5 11.7 26.2 26.2 26.2h69.2c14.5 0 26.2-11.7 26.2-26.2v-90.9c0-33.6-27.3-60.8-60.8-60.8z" fill="#283163" /><path d="M846 571.8h39.3v241.9H846z" fill="#AAD4E9" /><path d="M641.8 559.5c-7.2 0-13.1-5.9-13.1-13.1V416.6c0-7.2 5.9-13.1 13.1-13.1h39.3c7.2 0 13.1 5.9 13.1 13.1V476c0 2.8 2.3 5 5 5h41.6c2.8 0 5-2.3 5-5v-59.4c0-7.2 5.9-13.1 13.1-13.1H798c7.2 0 13.1 5.9 13.1 13.1V476c0 2.8 2.3 5 5 5h41.6c2.8 0 5-2.3 5-5v-59.4c0-7.2 5.9-13.1 13.1-13.1h39.7c7.2 0 13.1 5.9 13.1 13.1v129.8c0 7.2-5.9 13.1-13.1 13.1H641.8z" fill="#E5F1F9" /><path d="M915.5 416.6v129.8H641.8V416.6h39.3V476c0 10 8.1 18.1 18.1 18.1h41.6c10 0 18.1-8.1 18.1-18.1v-59.4H798V476c0 10 8.1 18.1 18.1 18.1h41.6c10 0 18.1-8.1 18.1-18.1v-59.4h39.7m0-26.2h-39.7c-14.5 0-26.2 11.7-26.2 26.2v51.3h-25.5v-51.3c0-14.5-11.7-26.2-26.2-26.2H759c-14.5 0-26.2 11.7-26.2 26.2v51.3h-25.5v-51.3c0-14.5-11.7-26.2-26.2-26.2h-39.3c-14.5 0-26.2 11.7-26.2 26.2v129.8c0 14.5 11.7 26.2 26.2 26.2h273.7c14.5 0 26.2-11.7 26.2-26.2V416.6c0-14.5-11.7-26.2-26.2-26.2z" fill="#283163" /><path d="M876.2 416.6h39.3v129.8h-39.3z" fill="#AAD4E9" /><path d="M661.1 609.5h235.1" fill="#E5F1F9" /><path d="M896.2 622.6H661.1c-7.2 0-13.1-5.9-13.1-13.1s5.9-13.1 13.1-13.1h235.1c7.2 0 13.1 5.9 13.1 13.1s-5.8 13.1-13.1 13.1z" fill="#283163" /><path d="M129.6 892.9c-19.2 0-34.7-15.6-34.7-34.7s15.6-34.7 34.7-34.7h767.3c19.2 0 34.7 15.6 34.7 34.7s-15.6 34.7-34.7 34.7H129.6z" fill="#1E62A1" /><path d="M896.9 836.5c11.9 0 21.6 9.7 21.6 21.6s-9.7 21.6-21.6 21.6H129.6c-11.9 0-21.6-9.7-21.6-21.6s9.7-21.6 21.6-21.6h767.3m0-26.2H129.6c-26.4 0-47.8 21.5-47.8 47.8s21.5 47.8 47.8 47.8h767.3c26.4 0 47.8-21.5 47.8-47.8s-21.4-47.8-47.8-47.8z" fill="#283163" /></svg>